#VRML V2.0 utf8
# 3D model generated by kicad-lcsc-manager
# Based on easyeda2kicad.py v1.0.1

Shape{
    appearance Appearance {
        material  Material {
            diffuseColor 0.25098039215686274 0.25098039215686274 0.25098039215686274
            specularColor 0.12549019607843137 0.12549019607843137 0.12549019607843137
            ambientIntensity 0.251
            transparency 0.0
            shininess 0.5
        }
    }
    geometry IndexedFaceSet {
        ccw TRUE
        solid FALSE
        coord DEF co Coordinate {
            point [
                0.2162 1.5529 0.1181, 0.2374 1.5483 0.1181, 0.2374 0.4797 0.1181, 1.5509 0.2182 0.1181, 1.5595 0.0979 0.1181, 0.2374 0.0979 0.1181, 0.4358 -1.5169 0.1181, 0.2374 -1.5601 0.1181, 0.2374 -1.3445 0.1181, -0.1922 -1.5675 0.1181, -0.1922 -1.3445 0.1181, -0.0807 -1.3445 0.1181, -1.5666 -0.23 0.1181, -1.5758 -0.1013 0.1181, -0.2656 -0.1013 0.1181, 0.1486 0.0975 0.1181, 0.1436 0.0979 0.1181, 0.1696 0.0979 0.1181, 0.1778 -0.0655 0.1181, 0.1696 -0.071 0.1181, 0.1696 0.0654 0.1181, 0.0825 -0.0899 0.1181, 0.0633 -0.1013 0.1181, 0.0825 -0.0683 0.1181, 0.0633 0.0979 0.1181, 0.1115 0.0979 0.1181, 0.1053 0.0975 0.1181, 0.0861 -0.0703 0.1181, 0.148 0.0753 0.1181, 0.1069 -0.078 0.1181, 0.1331 -0.0809 0.1181, 0.0825 0.0913 0.1181, 0.0825 0.0649 0.1181, 0.1047 0.0744 0.1181, 0.1286 0.0775 0.1181, 0.1627 0.07 0.1181, 0.1658 -0.0736 0.1181, 0.1514 -0.0789 0.1181, 0.1883 0.0478 0.1181, 0.1964 0.0326 0.1181, 0.2016 0.0115 0.1181, 0.2026 -0.0038 0.1181, 0.2006 -0.0251 0.1181, 0.1764 0.0609 0.1181, 0.1952 -0.0421 0.1181, 0.1871 -0.0557 0.1181, 0.1696 0.4797 0.1181, 0.2186 0.0449 0.1181, 0.207 0.0633 0.1181, 0.2374 -0.1013 0.1181, 0.2107 -0.0678 0.1181, 0.2211 -0.0491 0.1181, 0.1696 -0.097 0.1181, 0.18 -0.0935 0.1181, 0.1959 -0.0833 0.1181, 0.1893 0.0804 0.1181, 0.1706 0.0911 0.1181, 0.1696 0.0914 0.1181, 0.2271 -0.0282 0.1181, 0.229 -0.0054 0.1181, 0.2261 0.0226 0.1181, 0.1696 -0.4873 0.1181, 0.1483 -0.1013 0.1181, 0.1696 -0.1013 0.1181, 0.161 -0.1 0.1181, 0.1035 -0.0986 0.1181, 0.1234 -0.1013 0.1181, 0.0633 -0.4873 0.1181, 0.1313 -0.1024 0.1181, 0.1367 -0.1025 0.1181, -0.1922 0.0979 0.1181, -0.1922 0.0908 0.1181, -0.2656 0.0979 0.1181, -0.2069 0.0856 0.1181, -0.2284 0.0712 0.1181, -0.221 -0.0793 0.1181, -0.2372 -0.0638 0.1181, -0.2485 -0.0462 0.1181, -0.2286 0.071 0.1181, -0.2425 0.0556 0.1181, -0.2516 0.0387 0.1181, -0.2569 0.0193 0.1181, -0.2584 0.0008 0.1181, -0.2556 -0.0256 0.1181, -0.2005 -0.0913 0.1181, -0.1922 -0.0937 0.1181, -0.1922 -0.1013 0.1181, -0.1778 -0.098 0.1181, -0.0999 -0.1001 0.1181, -0.0999 0.0967 0.1181, -0.0807 0.0979 0.1181, -0.1555 0.0967 0.1181, -0.1839 0.0937 0.1181, -0.4216 -0.1001 0.1181, -0.4504 -0.1001 0.1181, -0.3736 0.0967 0.1181, -0.4017 -0.0449 0.1181, -0.3204 -0.0449 0.1181, -0.3016 -0.1001 0.1181, -0.2728 -0.1001 0.1181, -0.3472 0.0967 0.1181, -1.0391 -1.1961 0.1181, -1.198 -1.0372 0.1181, -0.2656 -0.4873 0.1181, -1.3327 -0.8573 0.1181, -1.4404 -0.6601 0.1181, -1.5048 -0.4873 0.1181, -1.5189 -0.4496 0.1181, -0.232 -1.5647 0.1181, -0.2656 -1.5574 0.1181, -0.2656 -1.3445 0.1181, -0.4515 -1.5169 0.1181, -0.6621 -1.4384 0.1181, -0.834 -1.3445 0.1181, -0.8593 -1.3307 0.1181, 0.2162 -1.5647 0.1181, 0.1696 -1.568 0.1181, 0.1696 -1.3445 0.1181, 0.0633 -1.5756 0.1181, 0.0633 -1.3445 0.1181, -0.0079 -1.5807 0.1181, -0.0807 -1.5755 0.1181, 0.6463 -1.4384 0.1181, 1.4246 -0.6601 0.1181, 1.3169 -0.8573 0.1181, 0.2374 -0.4873 0.1181, 1.1823 -1.0372 0.1181, 1.0234 -1.1961 0.1181, 0.8435 -1.3307 0.1181, 0.8183 -1.3445 0.1181, 1.5031 -0.4496 0.1181, 1.4891 -0.4873 0.1181, 0.2458 -0.0785 0.1181, 0.2458 -0.1001 0.1181, 0.3466 -0.1001 0.1181, 0.3202 -0.0785 0.1181, 0.3202 0.0967 0.1181, 0.3466 0.0967 0.1181, 1.5669 -0.0059 0.1181, 1.5601 -0.1013 0.1181, 1.5509 -0.23 0.1181, 0.4358 1.5051 0.1181, 0.6463 1.4266 0.1181, 0.8435 1.3189 0.1181, 1.0234 1.1842 0.1181, 1.1823 1.0254 0.1181, 1.3169 0.8455 0.1181, 1.4246 0.6483 0.1181, 1.4875 0.4797 0.1181, 1.5031 0.4378 0.1181, 0.1062 1.0089 0.1181, 0.1696 1.5562 0.1181, 0.1102 0.9783 0.1181, 0.1062 0.9478 0.1181, 0.0944 0.9193 0.1181, 0.0633 1.0713 0.1181, 0.0633 1.5638 0.1181, 0.0756 1.0619 0.1181, 0.0944 1.0374 0.1181, -0.0384 1.0924 0.1181, -0.0807 1.5637 0.1181, -0.0079 1.0965 0.1181, -0.0079 1.5689 0.1181, 0.0227 1.0924 0.1181, 0.0512 1.0806 0.1181, -0.1102 1.0374 0.1181, -0.122 1.0089 0.1181, -0.1922 1.5557 0.1181, -0.0669 1.0806 0.1181, -0.0807 1.0701 0.1181, -0.0914 1.0619 0.1181, -0.126 0.9783 0.1181, -0.122 0.9478 0.1181, -0.1922 0.4797 0.1181, -0.0807 0.8866 0.1181, -0.0807 0.4797 0.1181, -0.0914 0.8948 0.1181, -0.1102 0.9193 0.1181, -0.232 1.5529 0.1181, -0.2656 0.4797 0.1181, -0.2656 1.5456 0.1181, -0.4515 1.5051 0.1181, -1.5033 0.4797 0.1181, -1.4404 0.6483 0.1181, -1.3327 0.8455 0.1181, -1.198 1.0254 0.1181, -1.0391 1.1842 0.1181, -0.8593 1.3189 0.1181, -0.6621 1.4266 0.1181, -1.5827 -0.0059 0.1181, -1.5752 0.0979 0.1181, -1.5666 0.2182 0.1181, -1.5189 0.4378 0.1181, 0.0227 0.8643 0.1181, 0.0512 0.8761 0.1181, 0.0633 0.4797 0.1181, 0.0633 0.8854 0.1181, 0.0756 0.8948 0.1181, -0.0669 0.8761 0.1181, -0.0384 0.8643 0.1181, -0.0079 0.8602 0.1181, -0.0807 -0.8985 0.1181, -0.0914 -0.9066 0.1181, -0.1922 -0.4873 0.1181, -0.1102 -0.9311 0.1181, -0.122 -0.9596 0.1181, -0.126 -0.9902 0.1181, -0.122 -1.0207 0.1181, -0.0807 -1.0819 0.1181, -0.0914 -1.0737 0.1181, -0.1102 -1.0492 0.1181, 0.0512 -0.8879 0.1181, 0.0227 -0.8761 0.1181, -0.0384 -0.8761 0.1181, -0.0669 -0.8879 0.1181, -0.0807 -0.4873 0.1181, -0.0079 -0.8721 0.1181, 0.1062 -0.9596 0.1181, 0.1102 -0.9902 0.1181, 0.1062 -1.0207 0.1181, 0.0944 -1.0492 0.1181, 0.0944 -0.9311 0.1181, 0.0756 -0.9066 0.1181, 0.0633 -0.8972 0.1181, 0.0227 -1.1042 0.1181, 0.0512 -1.0924 0.1181, 0.0633 -1.0831 0.1181, 0.0756 -1.0737 0.1181, -0.0669 -1.0924 0.1181, -0.0384 -1.1042 0.1181, -0.0079 -1.1083 0.1181, -0.0615 -0.1001 0.1181, 0.0441 -0.1001 0.1181, 0.0441 0.0967 0.1181, -0.0567 0.0967 0.1181, -0.1534 -0.1001 0.1181, -0.0807 -0.1013 0.1181, -0.0615 -0.0785 0.1181, -0.0567 0.0751 0.1181, 0.1289 0.0991 0.1181, 0.0177 -0.0113 0.1181, 0.0177 -0.0785 0.1181, -0.0519 -0.0113 0.1181, -0.0519 0.0103 0.1181, 0.0177 0.0103 0.1181, 0.0177 0.0751 0.1181, -1.7637 -0.242 -0.0, -1.7618 -0.2418 2.0866, -1.7715 -0.1743 2.0866, -1.7795 -0.0059 -0.0, -1.7475 -0.3412 2.0866, -1.7166 -0.474 -0.0, -1.7154 -0.4737 2.0866, -1.7078 -0.505 2.0866, -1.6389 -0.6975 -0.0, -1.6526 -0.6644 2.0866, -1.5322 -0.9088 -0.0, -1.5826 -0.8177 2.0866, -1.6377 -0.697 2.0866, -1.4005 -1.1011 2.0866, -1.4983 -0.9637 2.0866, -1.5306 -0.9078 2.0866, -1.3981 -1.1038 2.0866, -1.3983 -1.1039 -0.0, -1.2901 -1.2285 2.0866, -1.2395 -1.2794 -0.0, -1.2382 -1.278 2.0866, -1.1681 -1.3448 2.0866, -1.0588 -1.4322 -0.0, -1.0581 -1.4313 2.0866, -1.0355 -1.4491 2.0866, -0.8593 -1.5596 -0.0, -0.8937 -1.5402 2.0866, -0.5873 -1.6801 2.0866, -0.6439 -1.6575 2.0866, -0.6446 -1.6592 -0.0, -0.7438 -1.6175 2.0866, -0.8586 -1.5583 2.0866, -0.1852 -1.7687 -0.0, -0.26 -1.7595 2.0866, -0.4186 -1.7293 -0.0, -0.4185 -1.729 2.0866, -0.4256 -1.7276 2.0866, 0.0513 -1.7766 -0.0, -0.0922 -1.7756 2.0866, -0.185 -1.7667 2.0866, 0.2865 -1.7514 2.0866, 0.2443 -1.7595 2.0866, 0.2868 -1.7529 -0.0, 0.0764 -1.7756 2.0866, 0.0513 -1.7756 2.0866, 0.4098 -1.7276 2.0866, 0.517 -1.698 -0.0, 0.5165 -1.6963 2.0866, 0.5716 -1.6801 2.0866, 0.7379 -1.613 -0.0, 0.7281 -1.6175 2.0866, 0.9454 -1.4992 -0.0, 0.878 -1.5402 2.0866, 0.7377 -1.6125 2.0866, 1.136 -1.3588 -0.0, 1.0198 -1.4491 2.0866, 0.9443 -1.4975 2.0866, 1.3049 -1.1933 2.0866, 1.2743 -1.2285 2.0866, 1.3061 -1.1943 -0.0, 1.1523 -1.3448 2.0866, 1.1354 -1.3581 2.0866, 1.3847 -1.1011 2.0866, 1.4528 -1.0086 -0.0, 1.4513 -1.0076 2.0866, 1.4825 -0.9637 2.0866, 1.5734 -0.8049 -0.0, 1.5668 -0.8177 2.0866, 1.6658 -0.5871 -0.0, 1.6369 -0.6644 2.0866, 1.5728 -0.8047 2.0866, 1.7283 -0.3588 -0.0, 1.692 -0.505 2.0866, 1.6639 -0.5864 2.0866, 1.7582 -0.1242 2.0866, 1.7558 -0.1743 2.0866, 1.7598 -0.1242 -0.0, 1.7318 -0.3412 2.0866, 1.7275 -0.3586 2.0866, 1.7638 -0.0059 2.0866, 1.7638 -0.0059 -0.0, 1.7582 0.1123 2.0866, 1.7598 0.1124 -0.0, 1.7558 0.1625 2.0866, 1.7283 0.347 -0.0, 1.7318 0.3294 2.0866, 1.6658 0.5752 -0.0, 1.692 0.4932 2.0866, 1.7275 0.3468 2.0866, 1.5734 0.7931 -0.0, 1.6369 0.6525 2.0866, 1.6639 0.5746 2.0866, 1.4513 0.9957 2.0866, 1.4825 0.9519 2.0866, 1.4528 0.9968 -0.0, 1.5668 0.8059 2.0866, 1.5728 0.7929 2.0866, 1.3847 1.0893 2.0866, 1.3061 1.1825 -0.0, 1.3049 1.1814 2.0866, 1.2743 1.2167 2.0866, 1.136 1.347 -0.0, 1.1523 1.333 2.0866, 0.9454 1.4874 -0.0, 1.0198 1.4372 2.0866, 1.1354 1.3463 2.0866, 0.7379 1.6011 -0.0, 0.878 1.5284 2.0866, 0.9443 1.4857 2.0866, 0.5165 1.6845 2.0866, 0.5716 1.6683 2.0866, 0.517 1.6862 -0.0, 0.7281 1.6056 2.0866, 0.7377 1.6007 2.0866, 0.4098 1.7158 2.0866, 0.2868 1.7411 -0.0, 0.2865 1.7396 2.0866, 0.2443 1.7477 2.0866, 0.0513 1.7648 -0.0, 0.0764 1.7637 2.0866, -0.1852 1.7568 -0.0, -0.0922 1.7637 2.0866, 0.0513 1.7637 2.0866, -0.4186 1.7175 -0.0, -0.26 1.7477 2.0866, -0.185 1.7549 2.0866, -0.6439 1.6456 2.0866, -0.5873 1.6683 2.0866, -0.6446 1.6474 -0.0, -0.4256 1.7158 2.0866, -0.4185 1.7172 2.0866, -0.7438 1.6056 2.0866, -0.8593 1.5477 -0.0, -0.8586 1.5465 2.0866, -0.8937 1.5284 2.0866, -1.0588 1.4204 -0.0, -1.0355 1.4372 2.0866, -1.2395 1.2676 -0.0, -1.1681 1.333 2.0866, -1.0581 1.4195 2.0866, -1.3983 1.0921 -0.0, -1.2901 1.2167 2.0866, -1.2382 1.2662 2.0866, -1.5306 0.896 2.0866, -1.4983 0.9519 2.0866, -1.5322 0.897 -0.0, -1.4005 1.0893 2.0866, -1.3981 1.092 2.0866, -1.5826 0.8059 2.0866, -1.6389 0.6857 -0.0, -1.6377 0.6852 2.0866, -1.6526 0.6525 2.0866, -1.7166 0.4622 -0.0, -1.7078 0.4932 2.0866, -1.7637 0.2302 -0.0, -1.7475 0.3294 2.0866, -1.7154 0.4619 2.0866, -1.7795 -0.0059 2.0866, -1.7715 0.1625 2.0866, -1.7618 0.23 2.0866, -0.1783 0.0925 2.1654, -0.1471 0.1333 2.1654, 0.0549 1.1268 2.1654, -0.1063 0.1646 2.1654, 1.6545 -0.3263 2.1654, 1.6774 -0.1668 2.1654, 0.1823 -0.0569 2.1654, 0.189 -0.0059 2.1654, 0.1626 -0.1043 2.1654, 1.5638 -0.6351 2.1654, 1.6165 -0.4829 2.1654, 0.2331 -1.6816 2.1654, 0.3912 -1.6511 2.1654, 0.0431 -0.1961 2.1654, 0.0727 1.6851 2.1654, -0.0884 1.6851 2.1654, -0.0404 1.3569 2.1654, 0.0431 0.1842 2.1654, 0.0906 0.1646 2.1654, 1.2173 1.1623 2.1654, 0.1313 0.1333 2.1654, 1.3228 1.0406 2.1654, 0.1626 0.0925 2.1654, 1.4163 0.9093 2.1654, 1.6545 0.3145 2.1654, 0.1823 0.045 2.1654, 1.6774 0.155 2.1654, 1.685 -0.0059 2.1654, 1.2173 -1.1742 2.1654, 1.3228 -1.0524 2.1654, 0.1313 -0.1451 2.1654, 1.4163 -0.9212 2.1654, 1.4969 -0.7816 2.1654, -1.1165 -1.2853 2.1654, -0.9899 -1.3849 2.1654, -0.0404 1.1142 2.1654, -0.8543 -1.472 2.1654, -0.7111 -1.5458 2.1654, -1.5126 -0.7816 2.1654, -0.0707 1.1268 2.1654, -1.5795 -0.6351 2.1654, -0.0967 1.1467 2.1654, -1.6322 -0.4829 2.1654, -0.0588 0.1842 2.1654, -0.0079 0.1909 2.1654, 0.0809 1.1467 2.1654, 0.1009 1.1728 2.1654, 0.1135 1.203 2.1654, 0.1177 1.2356 2.1654, 1.6165 0.471 2.1654, 1.5638 0.6233 2.1654, 1.4969 0.7698 2.1654, 1.1008 -1.2853 2.1654, 0.0906 -0.1764 2.1654, 0.9741 -1.3849 2.1654, 0.5458 -1.6057 2.1654, 0.6954 -1.5458 2.1654, 0.8386 -1.472 2.1654, -1.3386 1.0406 2.1654, -1.432 0.9093 2.1654, -0.1292 1.203 2.1654, -0.0707 1.3443 2.1654, -0.2488 1.6698 2.1654, -0.0967 1.3244 2.1654, -0.407 1.6393 2.1654, -0.1166 1.2984 2.1654, -0.5616 1.5939 2.1654, -0.1292 1.2681 2.1654, 1.1008 1.2735 2.1654, 0.9741 1.3731 2.1654, 0.1135 1.2681 2.1654, 0.0727 -1.6969 2.1654, -0.0079 -0.2028 2.1654, -0.0884 -1.6969 2.1654, -0.2488 -1.6816 2.1654, -0.0588 -0.1961 2.1654, -0.407 -1.6511 2.1654, -0.1783 -0.1043 2.1654, -0.198 -0.0569 2.1654, -1.432 -0.9212 2.1654, -1.3386 -1.0524 2.1654, -1.2331 -1.1742 2.1654, -1.7008 -0.0059 2.1654, -1.6931 -0.1668 2.1654, -1.6702 -0.3263 2.1654, -0.1166 1.1728 2.1654, -1.5126 0.7698 2.1654, -1.5795 0.6233 2.1654, -0.7111 1.534 2.1654, -0.8543 1.4602 2.1654, -0.1335 1.2356 2.1654, -0.0079 1.3612 2.1654, 0.0246 1.3569 2.1654, 0.2331 1.6698 2.1654, 0.0549 1.3443 2.1654, 0.3912 1.6393 2.1654, 0.0809 1.3244 2.1654, 0.5458 1.5939 2.1654, 0.1009 1.2984 2.1654, 0.6954 1.534 2.1654, 0.8386 1.4602 2.1654, -0.5616 -1.6057 2.1654, -0.1063 -0.1764 2.1654, -0.1471 -0.1451 2.1654, -1.6322 0.471 2.1654, -1.6702 0.3145 2.1654, -1.6931 0.155 2.1654, -0.9899 1.3731 2.1654, -1.1165 1.2735 2.1654, -1.2331 1.1623 2.1654, -0.198 0.045 2.1654, 0.0246 1.1142 2.1654, -0.0079 1.11 2.1654, -0.2047 -0.0059 2.1654, -0.8593 -1.3307 -0.0, -1.0391 -1.1961 -0.0, -1.198 -1.0372 -0.0, -1.3327 -0.8573 -0.0, -1.4404 -0.6601 -0.0, -1.5189 -0.4496 -0.0, -1.5666 -0.23 -0.0, -1.5827 -0.0059 -0.0, -1.5666 0.2182 -0.0, -1.5189 0.4378 -0.0, -1.4404 0.6483 -0.0, -1.3327 0.8455 -0.0, -1.198 1.0254 -0.0, -1.0391 1.1842 -0.0, -0.8593 1.3189 -0.0, -0.6621 -1.4384 -0.0, -0.4515 -1.5169 -0.0, -0.232 -1.5647 -0.0, -0.0079 -1.5807 -0.0, 0.2162 -1.5647 -0.0, 0.4358 -1.5169 -0.0, 0.6463 -1.4384 -0.0, 0.8435 -1.3307 -0.0, 1.0234 -1.1961 -0.0, 1.1823 -1.0372 -0.0, 1.3169 -0.8573 -0.0, 1.4246 -0.6601 -0.0, 1.5031 -0.4496 -0.0, 1.5509 -0.23 -0.0, 1.5669 -0.0059 -0.0, -0.6621 1.4266 -0.0, -0.4515 1.5051 -0.0, -0.232 1.5529 -0.0, -0.0079 1.5689 -0.0, 0.2162 1.5529 -0.0, 0.4358 1.5051 -0.0, 0.6463 1.4266 -0.0, 0.8435 1.3189 -0.0, 1.0234 1.1842 -0.0, 1.1823 1.0254 -0.0, 1.3169 0.8455 -0.0, 1.4246 0.6483 -0.0, 1.5031 0.4378 -0.0, 1.5509 0.2182 -0.0, 1.7531 0.1622 2.107, 1.6894 0.4925 2.107, 1.6344 0.6515 2.107, 1.3826 1.0876 2.107, 1.0182 1.4351 2.107, 0.8766 1.5261 2.107, 0.727 1.6032 2.107, 0.4092 1.7132 2.107, -0.092 1.7611 2.107, -0.2596 1.7451 2.107, -0.4249 1.7132 2.107, -0.7427 1.6032 2.107, -1.1663 1.331 2.107, -1.2881 1.2148 2.107, -1.3984 1.0876 2.107, -1.5802 0.8047 2.107, -1.7449 0.3289 2.107, -1.7688 0.1622 2.107, -1.7449 -0.3407 2.107, -1.5802 -0.8165 2.107, -1.496 -0.9623 2.107, -1.2881 -1.2266 2.107, -1.1663 -1.3428 2.107, -0.7427 -1.615 2.107, -0.2596 -1.7569 2.107, -0.092 -1.7729 2.107, 0.4092 -1.725 2.107, 0.8766 -1.5379 2.107, 1.0182 -1.4469 2.107, 1.3826 -1.0994 2.107, 1.6344 -0.6634 2.107, 1.6894 -0.5043 2.107, 1.636 -0.4886 2.1627, 1.6745 -0.3302 2.1627, 1.6931 -0.3337 2.1548, 1.6977 -0.1688 2.1627, 1.7166 -0.1706 2.1548, 1.7328 -0.1721 2.1423, 1.7054 -0.0059 2.1627, 1.7244 -0.0059 2.1548, 1.7407 -0.0059 2.1423, 1.7532 -0.0059 2.126, 1.6977 0.1569 2.1627, 1.7166 0.1588 2.1548, 1.7328 0.1603 2.1423, 1.7453 0.1615 2.126, 1.7453 -0.1733 2.126, 1.7531 -0.1741 2.107, 1.7611 -0.0059 2.107, 1.7291 -0.3407 2.107, 1.6819 -0.5021 2.126, 1.7214 -0.3392 2.126, 1.6699 -0.4985 2.1423, 1.7091 -0.3368 2.1423, 1.6542 -0.494 2.1548, 1.4334 -0.9322 2.1627, 1.3389 -1.065 2.1627, 1.4494 -0.9425 2.1548, 1.3538 -1.0767 2.1548, 1.4631 -0.9513 2.1423, 1.3666 -1.0868 2.1423, 1.4737 -0.958 2.126, 1.3765 -1.0946 2.126, 1.4803 -0.9623 2.107, 1.1141 -1.3007 2.1627, 0.9859 -1.4015 2.1627, 1.1265 -1.3151 2.1548, 0.997 -1.417 2.1548, 1.1372 -1.3274 2.1423, 1.0064 -1.4303 2.1423, 1.1454 -1.3369 2.126, 1.0137 -1.4405 2.126, 1.1506 -1.3428 2.107, 0.5525 -1.625 2.1627, 0.3961 -1.6709 2.1627, 0.5587 -1.6429 2.1548, 0.4005 -1.6894 2.1548, 0.564 -1.6583 2.1423, 0.4044 -1.7052 2.1423, 0.5681 -1.6702 2.126, 0.4073 -1.7174 2.126, 0.5707 -1.6776 2.107, 0.0737 -1.7173 2.1627, -0.0894 -1.7173 2.1627, 0.0746 -1.7362 2.1548, -0.0903 -1.7362 2.1548, 0.0753 -1.7525 2.1423, -0.0911 -1.7525 2.1423, 0.0759 -1.765 2.126, -0.0917 -1.765 2.126, 0.0763 -1.7729 2.107, -0.5682 -1.625 2.1627, -0.7196 -1.5644 2.1627, -0.5744 -1.6429 2.1548, -0.7275 -1.5817 2.1548, -0.5798 -1.6583 2.1423, -0.7343 -1.5965 2.1423, -0.5839 -1.6702 2.126, -0.7395 -1.6079 2.126, -0.5864 -1.6776 2.107, -1.0017 -1.4015 2.1627, -1.1298 -1.3007 2.1627, -1.0127 -1.417 2.1548, -1.1423 -1.3151 2.1548, -1.0222 -1.4303 2.1423, -1.153 -1.3274 2.1423, -1.0294 -1.4405 2.126, -1.1611 -1.3369 2.126, -1.034 -1.4469 2.107, -1.6518 -0.4886 2.1627, -1.6902 -0.3302 2.1627, -1.67 -0.494 2.1548, -1.7088 -0.3337 2.1548, -1.6856 -0.4985 2.1423, -1.7249 -0.3368 2.1423, -1.6976 -0.5021 2.126, -1.7371 -0.3392 2.126, -1.7052 -0.5043 2.107, -1.5984 0.6309 2.1627, -1.5307 0.7792 2.1627, -1.6161 0.6379 2.1548, -1.5476 0.7879 2.1548, -1.6312 0.644 2.1423, -1.5621 0.7953 2.1423, -1.6428 0.6486 2.126, -1.5732 0.8011 2.126, -1.6501 0.6515 2.107, -0.8645 1.4778 2.1627, -0.7196 1.5526 2.1627, -0.874 1.4943 2.1548, -0.7275 1.5698 2.1548, -0.8822 1.5084 2.1423, -0.7343 1.5847 2.1423, -0.8884 1.5193 2.126, -0.7395 1.596 2.126, -0.8924 1.5261 2.107, 0.236 1.6899 2.1627, 0.3961 1.6591 2.1627, 0.2387 1.7087 2.1548, 0.4005 1.6775 2.1548, 0.241 1.7249 2.1423, 0.4044 1.6934 2.1423, 0.2428 1.7373 2.126, 0.4073 1.7056 2.126, 0.2439 1.7451 2.107, 1.2321 1.1764 2.1627, 1.3389 1.0532 2.1627, 1.2458 1.1895 2.1548, 1.3538 1.0649 2.1548, 1.2576 1.2008 2.1423, 1.3666 1.075 2.1423, 1.2667 1.2094 2.126, 1.3765 1.0827 2.126, 1.2724 1.2148 2.107, 1.515 0.7792 2.1627, 1.5827 0.6309 2.1627, 1.5318 0.7879 2.1548, 1.6003 0.6379 2.1548, 1.5463 0.7953 2.1423, 1.6155 0.644 2.1423, 1.5575 0.8011 2.126, 1.6271 0.6486 2.126, 1.5645 0.8047 2.107, 1.6271 -0.6604 2.126, 1.6155 -0.6558 2.1423, 1.6003 -0.6497 2.1548, 1.5827 -0.6427 2.1627, 1.5645 -0.8165 2.107, 1.5575 -0.8129 2.126, 1.5463 -0.8072 2.1423, 1.5318 -0.7997 2.1548, 1.515 -0.791 2.1627, 1.2724 -1.2266 2.107, 1.2667 -1.2212 2.126, 1.2576 -1.2126 2.1423, 1.2458 -1.2013 2.1548, 1.2321 -1.1882 2.1627, 0.8727 -1.5311 2.126, 0.8664 -1.5202 2.1423, 0.8583 -1.5061 2.1548, 0.8488 -1.4897 2.1627, 0.727 -1.615 2.107, 0.7237 -1.6079 2.126, 0.7185 -1.5965 2.1423, 0.7117 -1.5817 2.1548, 0.7039 -1.5644 2.1627, 0.2439 -1.7569 2.107, 0.2428 -1.7491 2.126, 0.241 -1.7367 2.1423, 0.2387 -1.7206 2.1548, 0.236 -1.7018 2.1627, -0.2585 -1.7491 2.126, -0.2567 -1.7367 2.1423, -0.2544 -1.7206 2.1548, -0.2517 -1.7018 2.1627, -0.4249 -1.725 2.107, -0.4231 -1.7174 2.126, -0.4201 -1.7052 2.1423, -0.4163 -1.6894 2.1548, -0.4118 -1.6709 2.1627, -0.8924 -1.5379 2.107, -0.8884 -1.5311 2.126, -0.8822 -1.5202 2.1423, -0.874 -1.5061 2.1548, -0.8645 -1.4897 2.1627, -1.2824 -1.2212 2.126, -1.2734 -1.2126 2.1423, -1.2616 -1.2013 2.1548, -1.2478 -1.1882 2.1627, -1.3984 -1.0994 2.107, -1.3922 -1.0946 2.126, -1.3824 -1.0868 2.1423, -1.3695 -1.0767 2.1548, -1.3546 -1.065 2.1627, -1.4492 -0.9322 2.1627, -1.4652 -0.9425 2.1548, -1.4789 -0.9513 2.1423, -1.4894 -0.958 2.126, -1.5307 -0.791 2.1627, -1.5476 -0.7997 2.1548, -1.5621 -0.8072 2.1423, -1.5732 -0.8129 2.126, -1.6501 -0.6634 2.107, -1.6428 -0.6604 2.126, -1.6312 -0.6558 2.1423, -1.6161 -0.6497 2.1548, -1.5984 -0.6427 2.1627, -1.7688 -0.1741 2.107, -1.761 -0.1733 2.126, -1.7485 -0.1721 2.1423, -1.7323 -0.1706 2.1548, -1.7134 -0.1688 2.1627, -1.7212 -0.0059 2.1627, -1.7402 -0.0059 2.1548, -1.7565 -0.0059 2.1423, -1.769 -0.0059 2.126, -1.7768 -0.0059 2.107, -1.7134 0.1569 2.1627, -1.7323 0.1588 2.1548, -1.7485 0.1603 2.1423, -1.761 0.1615 2.126, -1.6902 0.3183 2.1627, -1.7088 0.3219 2.1548, -1.7249 0.325 2.1423, -1.7371 0.3274 2.126, -1.7052 0.4925 2.107, -1.6976 0.4903 2.126, -1.6856 0.4867 2.1423, -1.67 0.4821 2.1548, -1.6518 0.4768 2.1627, -1.496 0.9505 2.107, -1.4894 0.9462 2.126, -1.4789 0.9394 2.1423, -1.4652 0.9306 2.1548, -1.4492 0.9204 2.1627, -1.3546 1.0532 2.1627, -1.3695 1.0649 2.1548, -1.3824 1.075 2.1423, -1.3922 1.0827 2.126, -1.2824 1.2094 2.126, -1.2734 1.2008 2.1423, -1.2616 1.1895 2.1548, -1.2478 1.1764 2.1627, -1.1298 1.2889 2.1627, -1.1423 1.3033 2.1548, -1.153 1.3156 2.1423, -1.1611 1.325 2.126, -1.034 1.4351 2.107, -1.0294 1.4286 2.126, -1.0222 1.4185 2.1423, -1.0127 1.4052 2.1548, -1.0017 1.3897 2.1627, -0.5864 1.6658 2.107, -0.5839 1.6583 2.126, -0.5798 1.6465 2.1423, -0.5744 1.6311 2.1548, -0.5682 1.6132 2.1627, -0.4118 1.6591 2.1627, -0.4163 1.6775 2.1548, -0.4201 1.6934 2.1423, -0.4231 1.7056 2.126, -0.2585 1.7373 2.126, -0.2567 1.7249 2.1423, -0.2544 1.7087 2.1548, -0.2517 1.6899 2.1627, -0.0894 1.7054 2.1627, -0.0903 1.7244 2.1548, -0.0911 1.7407 2.1423, -0.0917 1.7532 2.126, 0.0763 1.7611 2.107, 0.0759 1.7532 2.126, 0.0753 1.7407 2.1423, 0.0746 1.7244 2.1548, 0.0737 1.7054 2.1627, 0.5707 1.6658 2.107, 0.5681 1.6583 2.126, 0.564 1.6465 2.1423, 0.5587 1.6311 2.1548, 0.5525 1.6132 2.1627, 0.7039 1.5526 2.1627, 0.7117 1.5698 2.1548, 0.7185 1.5847 2.1423, 0.7237 1.596 2.126, 0.8727 1.5193 2.126, 0.8664 1.5084 2.1423, 0.8583 1.4943 2.1548, 0.8488 1.4778 2.1627, 0.9859 1.3897 2.1627, 0.997 1.4052 2.1548, 1.0064 1.4185 2.1423, 1.0137 1.4286 2.126, 1.1506 1.331 2.107, 1.1454 1.325 2.126, 1.1372 1.3156 2.1423, 1.1265 1.3033 2.1548, 1.1141 1.2889 2.1627, 1.4803 0.9505 2.107, 1.4737 0.9462 2.126, 1.4631 0.9394 2.1423, 1.4494 0.9306 2.1548, 1.4334 0.9204 2.1627, 1.636 0.4768 2.1627, 1.6542 0.4821 2.1548, 1.6699 0.4867 2.1423, 1.6819 0.4903 2.126, 1.7291 0.3289 2.107, 1.7214 0.3274 2.126, 1.7091 0.325 2.1423, 1.6931 0.3219 2.1548, 1.6745 0.3183 2.1627
            ]
        }
        coordIndex [
            0,1,2,-1,3,4,5,-1,6,7,8,-1,9,10,11,-1,12,13,14,-1,15,16,17,-1,18,19,20,-1,21,22,23,-1,23,22,24,-1,24,25,26,-1,27,28,29,-1,29,28,30,-1,26,31,24,-1,24,31,32,-1,24,32,23,-1,23,32,33,-1,23,33,27,-1,27,33,34,-1,27,34,28,-1,20,19,35,-1,35,19,36,-1,35,36,28,-1,28,36,37,-1,28,37,30,-1,38,39,40,-1,20,41,42,-1,41,20,40,-1,40,20,43,-1,40,43,38,-1,42,44,20,-1,20,44,45,-1,20,45,18,-1,17,16,46,-1,47,48,5,-1,49,50,51,-1,52,53,49,-1,49,53,54,-1,49,54,50,-1,55,56,17,-1,17,56,57,-1,17,57,15,-1,51,58,49,-1,49,58,59,-1,49,59,5,-1,5,59,60,-1,5,60,47,-1,61,62,63,-1,63,62,64,-1,21,65,22,-1,22,65,66,-1,22,66,67,-1,67,66,68,-1,67,68,61,-1,61,68,69,-1,61,69,62,-1,70,71,72,-1,72,71,73,-1,72,73,74,-1,75,14,76,-1,76,14,77,-1,74,78,72,-1,72,78,79,-1,72,79,80,-1,80,81,72,-1,72,81,82,-1,72,82,14,-1,14,82,83,-1,14,83,77,-1,84,85,86,-1,86,85,87,-1,88,89,90,-1,90,89,91,-1,90,91,70,-1,70,91,92,-1,70,92,71,-1,93,14,94,-1,94,14,13,-1,94,13,95,-1,96,97,93,-1,93,97,98,-1,93,98,14,-1,14,98,99,-1,14,99,72,-1,72,99,100,-1,72,100,95,-1,101,102,103,-1,103,102,104,-1,104,105,103,-1,103,105,106,-1,103,106,14,-1,14,106,107,-1,14,107,12,-1,108,109,110,-1,110,109,111,-1,111,112,110,-1,110,112,113,-1,110,113,103,-1,103,113,114,-1,103,114,101,-1,115,116,117,-1,117,116,118,-1,117,118,119,-1,119,118,120,-1,119,120,11,-1,11,120,121,-1,11,121,9,-1,6,8,122,-1,123,124,125,-1,125,124,126,-1,126,127,125,-1,125,127,128,-1,125,128,8,-1,8,128,129,-1,8,129,122,-1,49,130,125,-1,125,130,131,-1,125,131,123,-1,5,132,49,-1,49,132,133,-1,49,133,134,-1,135,132,136,-1,136,132,5,-1,136,5,137,-1,137,5,4,-1,137,4,134,-1,4,138,134,-1,134,138,139,-1,134,139,49,-1,49,139,140,-1,49,140,130,-1,1,141,2,-1,2,141,142,-1,2,142,143,-1,143,144,2,-1,2,144,145,-1,2,145,146,-1,146,147,2,-1,2,147,148,-1,2,148,5,-1,5,148,149,-1,5,149,3,-1,150,151,152,-1,152,151,46,-1,152,46,153,-1,153,46,154,-1,155,156,157,-1,157,156,151,-1,157,151,158,-1,158,151,150,-1,159,160,161,-1,161,160,162,-1,161,162,163,-1,163,162,156,-1,163,156,164,-1,164,156,155,-1,165,166,167,-1,159,168,160,-1,160,168,169,-1,160,169,167,-1,167,169,170,-1,167,170,165,-1,171,172,173,-1,174,175,176,-1,176,175,173,-1,176,173,177,-1,177,173,172,-1,166,171,167,-1,167,171,173,-1,167,173,178,-1,178,173,179,-1,178,179,180,-1,180,179,181,-1,179,182,183,-1,183,184,179,-1,179,184,185,-1,179,185,186,-1,186,187,179,-1,179,187,188,-1,179,188,181,-1,13,189,95,-1,95,189,190,-1,95,190,72,-1,72,190,191,-1,72,191,192,-1,193,194,195,-1,195,194,196,-1,195,196,46,-1,46,196,197,-1,46,197,154,-1,174,198,175,-1,175,198,199,-1,175,199,195,-1,195,199,200,-1,195,200,193,-1,201,202,203,-1,203,202,204,-1,204,205,203,-1,203,205,206,-1,203,206,10,-1,10,206,207,-1,208,11,209,-1,209,11,10,-1,209,10,210,-1,210,10,207,-1,211,212,67,-1,213,214,215,-1,213,215,216,-1,217,61,218,-1,218,61,117,-1,218,117,219,-1,219,117,220,-1,217,221,61,-1,61,221,222,-1,61,222,67,-1,67,222,223,-1,67,223,211,-1,224,225,119,-1,119,225,226,-1,119,226,117,-1,117,226,227,-1,117,227,220,-1,208,228,11,-1,11,228,229,-1,11,229,119,-1,119,229,230,-1,119,230,224,-1,195,90,175,-1,175,90,70,-1,175,70,173,-1,173,70,72,-1,173,72,179,-1,179,72,192,-1,179,192,182,-1,151,0,46,-1,46,0,2,-1,46,2,17,-1,17,2,5,-1,17,5,55,-1,55,5,48,-1,231,232,22,-1,22,232,24,-1,24,232,233,-1,24,233,234,-1,235,88,236,-1,236,88,90,-1,236,90,237,-1,237,90,238,-1,16,239,46,-1,46,239,25,-1,46,25,195,-1,195,25,24,-1,195,24,90,-1,90,24,234,-1,90,234,238,-1,240,241,242,-1,242,241,237,-1,242,237,243,-1,243,237,238,-1,243,238,244,-1,244,238,245,-1,87,235,86,-1,86,235,236,-1,86,236,203,-1,203,236,215,-1,203,215,201,-1,201,215,214,-1,237,231,236,-1,236,231,22,-1,236,22,215,-1,215,22,67,-1,215,67,216,-1,216,67,212,-1,75,84,14,-1,14,84,86,-1,14,86,103,-1,103,86,203,-1,103,203,110,-1,110,203,10,-1,110,10,108,-1,108,10,9,-1,64,52,63,-1,63,52,49,-1,63,49,61,-1,61,49,125,-1,61,125,117,-1,117,125,8,-1,117,8,115,-1,115,8,7,-1,246,247,248,-1,246,248,249,-1,247,246,250,-1,250,246,251,-1,250,251,252,-1,252,251,253,-1,253,251,254,-1,253,254,255,-1,256,257,254,-1,254,257,258,-1,254,258,255,-1,259,260,256,-1,256,260,261,-1,256,261,257,-1,259,256,262,-1,262,256,263,-1,262,263,264,-1,264,263,265,-1,264,265,266,-1,266,265,267,-1,267,265,268,-1,267,268,269,-1,269,268,270,-1,270,268,271,-1,270,271,272,-1,273,274,275,-1,275,274,276,-1,275,276,271,-1,271,276,277,-1,271,277,272,-1,278,279,280,-1,280,279,281,-1,280,281,275,-1,275,281,282,-1,275,282,273,-1,283,284,278,-1,278,284,285,-1,278,285,279,-1,286,287,288,-1,288,287,289,-1,288,289,283,-1,283,289,290,-1,283,290,284,-1,286,288,291,-1,291,288,292,-1,291,292,293,-1,293,292,294,-1,294,292,295,-1,294,295,296,-1,297,298,295,-1,295,298,299,-1,295,299,296,-1,300,301,297,-1,297,301,302,-1,297,302,298,-1,303,304,305,-1,305,304,306,-1,305,306,300,-1,300,306,307,-1,300,307,301,-1,303,305,308,-1,308,305,309,-1,308,309,310,-1,310,309,311,-1,311,309,312,-1,311,312,313,-1,314,315,312,-1,312,315,316,-1,312,316,313,-1,317,318,314,-1,314,318,319,-1,314,319,315,-1,320,321,322,-1,322,321,323,-1,322,323,317,-1,317,323,324,-1,317,324,318,-1,320,322,325,-1,325,322,326,-1,325,326,327,-1,327,326,328,-1,327,328,329,-1,329,328,330,-1,329,330,331,-1,332,333,330,-1,330,333,334,-1,330,334,331,-1,335,336,332,-1,332,336,337,-1,332,337,333,-1,338,339,340,-1,340,339,341,-1,340,341,335,-1,335,341,342,-1,335,342,336,-1,338,340,343,-1,343,340,344,-1,343,344,345,-1,345,344,346,-1,346,344,347,-1,346,347,348,-1,349,350,347,-1,347,350,351,-1,347,351,348,-1,352,353,349,-1,349,353,354,-1,349,354,350,-1,355,356,357,-1,357,356,358,-1,357,358,352,-1,352,358,359,-1,352,359,353,-1,355,357,360,-1,360,357,361,-1,360,361,362,-1,362,361,363,-1,363,361,364,-1,363,364,365,-1,366,367,364,-1,364,367,368,-1,364,368,365,-1,369,370,366,-1,366,370,371,-1,366,371,367,-1,372,373,374,-1,374,373,375,-1,374,375,369,-1,369,375,376,-1,369,376,370,-1,372,374,377,-1,377,374,378,-1,377,378,379,-1,379,378,380,-1,380,378,381,-1,380,381,382,-1,383,384,381,-1,381,384,385,-1,381,385,382,-1,386,387,383,-1,383,387,388,-1,383,388,384,-1,389,390,391,-1,391,390,392,-1,391,392,386,-1,386,392,393,-1,386,393,387,-1,389,391,394,-1,394,391,395,-1,394,395,396,-1,396,395,397,-1,397,395,398,-1,397,398,399,-1,400,401,398,-1,398,401,402,-1,398,402,399,-1,248,403,249,-1,249,403,404,-1,249,404,400,-1,400,404,405,-1,400,405,401,-1,406,407,408,-1,408,407,409,-1,410,411,412,-1,412,411,413,-1,414,415,412,-1,412,415,416,-1,412,416,410,-1,417,418,419,-1,420,421,422,-1,423,424,425,-1,425,424,426,-1,425,426,427,-1,427,426,428,-1,427,428,429,-1,430,431,432,-1,432,431,413,-1,432,413,433,-1,433,413,411,-1,434,435,436,-1,436,435,437,-1,436,437,414,-1,414,437,438,-1,414,438,415,-1,439,440,441,-1,441,440,442,-1,441,442,443,-1,444,445,446,-1,446,445,447,-1,446,447,448,-1,409,449,408,-1,408,449,450,-1,408,450,451,-1,451,450,423,-1,451,423,452,-1,452,423,425,-1,452,425,453,-1,453,425,454,-1,430,455,431,-1,431,455,456,-1,431,456,428,-1,428,456,457,-1,428,457,429,-1,434,436,458,-1,458,436,459,-1,458,459,460,-1,418,461,419,-1,419,461,462,-1,419,462,459,-1,459,462,463,-1,459,463,460,-1,464,465,466,-1,422,421,467,-1,467,421,468,-1,467,468,469,-1,469,468,470,-1,469,470,471,-1,471,470,472,-1,471,472,473,-1,425,474,454,-1,454,474,475,-1,454,475,476,-1,417,419,477,-1,477,419,478,-1,477,478,479,-1,479,478,480,-1,480,478,481,-1,480,481,482,-1,483,484,443,-1,444,485,445,-1,445,485,486,-1,445,486,441,-1,441,486,487,-1,441,487,439,-1,488,489,447,-1,447,489,490,-1,447,490,448,-1,466,465,491,-1,491,465,492,-1,491,492,493,-1,472,494,473,-1,473,494,495,-1,473,495,496,-1,422,497,420,-1,420,497,498,-1,420,498,499,-1,499,498,500,-1,499,500,501,-1,501,500,502,-1,501,502,503,-1,503,502,504,-1,503,504,505,-1,505,504,476,-1,505,476,506,-1,506,476,475,-1,482,481,507,-1,507,481,508,-1,507,508,443,-1,443,508,509,-1,443,509,483,-1,493,510,491,-1,491,510,511,-1,491,511,447,-1,447,511,512,-1,447,512,488,-1,495,513,496,-1,496,513,514,-1,496,514,466,-1,466,514,515,-1,466,515,464,-1,406,408,516,-1,516,408,517,-1,516,517,518,-1,518,441,516,-1,516,441,443,-1,516,443,519,-1,519,443,484,-1,271,268,520,-1,520,268,521,-1,521,268,265,-1,521,265,522,-1,522,265,263,-1,522,263,523,-1,523,263,256,-1,523,256,524,-1,524,256,254,-1,524,254,525,-1,525,254,251,-1,525,251,526,-1,526,251,246,-1,526,246,527,-1,527,246,249,-1,527,249,528,-1,528,249,400,-1,528,400,529,-1,529,400,398,-1,529,398,530,-1,530,398,395,-1,530,395,531,-1,531,395,391,-1,531,391,532,-1,532,391,386,-1,532,386,533,-1,533,386,383,-1,533,383,534,-1,271,520,275,-1,275,520,535,-1,275,535,280,-1,280,535,536,-1,280,536,278,-1,278,536,537,-1,278,537,283,-1,283,537,538,-1,283,538,288,-1,288,538,539,-1,288,539,292,-1,292,539,540,-1,292,540,295,-1,295,540,541,-1,295,541,297,-1,297,541,542,-1,297,542,300,-1,300,542,543,-1,300,543,305,-1,305,543,544,-1,305,544,309,-1,309,544,545,-1,309,545,312,-1,312,545,546,-1,312,546,314,-1,314,546,547,-1,314,547,317,-1,317,547,548,-1,317,548,322,-1,322,548,549,-1,322,549,326,-1,383,381,534,-1,534,381,378,-1,534,378,550,-1,550,378,374,-1,550,374,551,-1,551,374,369,-1,551,369,552,-1,552,369,366,-1,552,366,553,-1,553,366,364,-1,553,364,554,-1,554,364,361,-1,554,361,555,-1,555,361,357,-1,555,357,556,-1,556,357,352,-1,556,352,557,-1,557,352,349,-1,557,349,558,-1,558,349,347,-1,558,347,559,-1,559,347,344,-1,559,344,560,-1,560,344,340,-1,560,340,561,-1,561,340,335,-1,561,335,562,-1,562,335,332,-1,562,332,563,-1,563,332,330,-1,563,330,549,-1,549,330,328,-1,549,328,326,-1,327,329,564,-1,334,333,565,-1,337,336,566,-1,338,343,567,-1,351,350,568,-1,354,353,569,-1,359,358,570,-1,355,360,571,-1,368,367,572,-1,371,370,573,-1,376,375,574,-1,372,377,575,-1,385,384,576,-1,388,387,577,-1,393,392,578,-1,389,394,579,-1,402,401,580,-1,405,404,581,-1,247,250,582,-1,258,257,583,-1,261,260,584,-1,262,264,585,-1,266,267,586,-1,277,276,587,-1,281,279,588,-1,285,284,589,-1,286,291,590,-1,299,298,591,-1,302,301,592,-1,303,308,593,-1,316,315,594,-1,319,318,595,-1,596,416,415,-1,410,416,597,-1,597,416,596,-1,597,596,598,-1,411,410,599,-1,599,410,597,-1,599,597,600,-1,600,597,598,-1,600,598,601,-1,433,411,602,-1,602,411,599,-1,602,599,603,-1,603,599,600,-1,603,600,604,-1,604,600,601,-1,604,601,605,-1,432,433,606,-1,606,433,602,-1,606,602,607,-1,607,602,603,-1,607,603,608,-1,608,603,604,-1,608,604,609,-1,609,604,605,-1,609,605,564,-1,610,611,612,-1,595,613,614,-1,614,613,615,-1,614,615,616,-1,616,615,617,-1,616,617,618,-1,437,435,619,-1,619,435,620,-1,619,620,621,-1,621,620,622,-1,621,622,623,-1,623,622,624,-1,623,624,625,-1,625,624,626,-1,625,626,627,-1,627,626,593,-1,458,460,628,-1,628,460,629,-1,628,629,630,-1,630,629,631,-1,630,631,632,-1,632,631,633,-1,632,633,634,-1,634,633,635,-1,634,635,636,-1,636,635,592,-1,461,418,637,-1,637,418,638,-1,637,638,639,-1,639,638,640,-1,639,640,641,-1,641,640,642,-1,641,642,643,-1,643,642,644,-1,643,644,645,-1,645,644,590,-1,477,479,646,-1,646,479,647,-1,646,647,648,-1,648,647,649,-1,648,649,650,-1,650,649,651,-1,650,651,652,-1,652,651,653,-1,652,653,654,-1,654,653,589,-1,507,443,655,-1,655,443,656,-1,655,656,657,-1,657,656,658,-1,657,658,659,-1,659,658,660,-1,659,660,661,-1,661,660,662,-1,661,662,663,-1,663,662,587,-1,440,439,664,-1,664,439,665,-1,664,665,666,-1,666,665,667,-1,666,667,668,-1,668,667,669,-1,668,669,670,-1,670,669,671,-1,670,671,672,-1,672,671,586,-1,448,490,673,-1,673,490,674,-1,673,674,675,-1,675,674,676,-1,675,676,677,-1,677,676,678,-1,677,678,679,-1,679,678,680,-1,679,680,681,-1,681,680,582,-1,493,492,682,-1,682,492,683,-1,682,683,684,-1,684,683,685,-1,684,685,686,-1,686,685,687,-1,686,687,688,-1,688,687,689,-1,688,689,690,-1,690,689,579,-1,495,494,691,-1,691,494,692,-1,691,692,693,-1,693,692,694,-1,693,694,695,-1,695,694,696,-1,695,696,697,-1,697,696,698,-1,697,698,699,-1,699,698,575,-1,499,501,700,-1,700,501,701,-1,700,701,702,-1,702,701,703,-1,702,703,704,-1,704,703,705,-1,704,705,706,-1,706,705,707,-1,706,707,708,-1,708,707,571,-1,425,427,709,-1,709,427,710,-1,709,710,711,-1,711,710,712,-1,711,712,713,-1,713,712,714,-1,713,714,715,-1,715,714,716,-1,715,716,717,-1,717,716,567,-1,457,456,718,-1,718,456,719,-1,718,719,720,-1,720,719,721,-1,720,721,722,-1,722,721,723,-1,722,723,724,-1,724,723,725,-1,724,725,726,-1,726,725,566,-1,325,612,320,-1,320,612,611,-1,320,611,321,-1,323,321,613,-1,613,321,611,-1,613,611,615,-1,615,611,610,-1,615,610,617,-1,595,318,613,-1,613,318,324,-1,613,324,323,-1,315,319,594,-1,594,319,595,-1,594,595,727,-1,727,595,614,-1,727,614,728,-1,728,614,616,-1,728,616,729,-1,729,616,618,-1,729,618,730,-1,313,316,731,-1,731,316,594,-1,731,594,732,-1,732,594,727,-1,732,727,733,-1,733,727,728,-1,733,728,734,-1,734,728,729,-1,734,729,735,-1,735,729,730,-1,735,730,438,-1,438,730,415,-1,438,437,735,-1,735,437,619,-1,735,619,734,-1,734,619,621,-1,734,621,733,-1,733,621,623,-1,733,623,732,-1,732,623,625,-1,732,625,731,-1,731,625,627,-1,731,627,313,-1,313,627,311,-1,593,308,627,-1,627,308,310,-1,627,310,311,-1,304,303,736,-1,736,303,593,-1,736,593,737,-1,737,593,626,-1,737,626,738,-1,738,626,624,-1,738,624,739,-1,739,624,622,-1,739,622,740,-1,740,622,620,-1,740,620,434,-1,434,620,435,-1,434,458,740,-1,740,458,628,-1,740,628,739,-1,739,628,630,-1,739,630,738,-1,738,630,632,-1,738,632,737,-1,737,632,634,-1,737,634,736,-1,736,634,636,-1,736,636,304,-1,304,636,306,-1,592,301,636,-1,636,301,307,-1,636,307,306,-1,298,302,591,-1,591,302,592,-1,591,592,741,-1,741,592,635,-1,741,635,742,-1,742,635,633,-1,742,633,743,-1,743,633,631,-1,743,631,744,-1,744,631,629,-1,744,629,463,-1,463,629,460,-1,296,299,745,-1,745,299,591,-1,745,591,746,-1,746,591,741,-1,746,741,747,-1,747,741,742,-1,747,742,748,-1,748,742,743,-1,748,743,749,-1,749,743,744,-1,749,744,462,-1,462,744,463,-1,462,461,749,-1,749,461,637,-1,749,637,748,-1,748,637,639,-1,748,639,747,-1,747,639,641,-1,747,641,746,-1,746,641,643,-1,746,643,745,-1,745,643,645,-1,745,645,296,-1,296,645,294,-1,590,291,645,-1,645,291,293,-1,645,293,294,-1,287,286,750,-1,750,286,590,-1,750,590,751,-1,751,590,644,-1,751,644,752,-1,752,644,642,-1,752,642,753,-1,753,642,640,-1,753,640,754,-1,754,640,638,-1,754,638,417,-1,417,638,418,-1,417,477,754,-1,754,477,646,-1,754,646,753,-1,753,646,648,-1,753,648,752,-1,752,648,650,-1,752,650,751,-1,751,650,652,-1,751,652,750,-1,750,652,654,-1,750,654,287,-1,287,654,289,-1,589,284,654,-1,654,284,290,-1,654,290,289,-1,279,285,588,-1,588,285,589,-1,588,589,755,-1,755,589,653,-1,755,653,756,-1,756,653,651,-1,756,651,757,-1,757,651,649,-1,757,649,758,-1,758,649,647,-1,758,647,480,-1,480,647,479,-1,282,281,759,-1,759,281,588,-1,759,588,760,-1,760,588,755,-1,760,755,761,-1,761,755,756,-1,761,756,762,-1,762,756,757,-1,762,757,763,-1,763,757,758,-1,763,758,482,-1,482,758,480,-1,482,507,763,-1,763,507,655,-1,763,655,762,-1,762,655,657,-1,762,657,761,-1,761,657,659,-1,761,659,760,-1,760,659,661,-1,760,661,759,-1,759,661,663,-1,759,663,282,-1,282,663,273,-1,587,276,663,-1,663,276,274,-1,663,274,273,-1,272,277,764,-1,764,277,587,-1,764,587,765,-1,765,587,662,-1,765,662,766,-1,766,662,660,-1,766,660,767,-1,767,660,658,-1,767,658,768,-1,768,658,656,-1,768,656,442,-1,442,656,443,-1,442,440,768,-1,768,440,664,-1,768,664,767,-1,767,664,666,-1,767,666,766,-1,766,666,668,-1,766,668,765,-1,765,668,670,-1,765,670,764,-1,764,670,672,-1,764,672,272,-1,272,672,270,-1,586,267,672,-1,672,267,269,-1,672,269,270,-1,264,266,585,-1,585,266,586,-1,585,586,769,-1,769,586,671,-1,769,671,770,-1,770,671,669,-1,770,669,771,-1,771,669,667,-1,771,667,772,-1,772,667,665,-1,772,665,487,-1,487,665,439,-1,259,262,773,-1,773,262,585,-1,773,585,774,-1,774,585,769,-1,774,769,775,-1,775,769,770,-1,775,770,776,-1,776,770,771,-1,776,771,777,-1,777,771,772,-1,777,772,486,-1,486,772,487,-1,486,485,777,-1,777,485,778,-1,777,778,776,-1,776,778,779,-1,776,779,775,-1,775,779,780,-1,775,780,774,-1,774,780,781,-1,774,781,773,-1,773,781,584,-1,773,584,259,-1,259,584,260,-1,485,444,778,-1,778,444,782,-1,778,782,779,-1,779,782,783,-1,779,783,780,-1,780,783,784,-1,780,784,781,-1,781,784,785,-1,781,785,584,-1,584,785,583,-1,584,583,261,-1,261,583,257,-1,255,258,786,-1,786,258,583,-1,786,583,787,-1,787,583,785,-1,787,785,788,-1,788,785,784,-1,788,784,789,-1,789,784,783,-1,789,783,790,-1,790,783,782,-1,790,782,446,-1,446,782,444,-1,446,448,790,-1,790,448,673,-1,790,673,789,-1,789,673,675,-1,789,675,788,-1,788,675,677,-1,788,677,787,-1,787,677,679,-1,787,679,786,-1,786,679,681,-1,786,681,255,-1,255,681,253,-1,582,250,681,-1,681,250,252,-1,681,252,253,-1,248,247,791,-1,791,247,582,-1,791,582,792,-1,792,582,680,-1,792,680,793,-1,793,680,678,-1,793,678,794,-1,794,678,676,-1,794,676,795,-1,795,676,674,-1,795,674,489,-1,489,674,490,-1,489,488,795,-1,795,488,796,-1,795,796,794,-1,794,796,797,-1,794,797,793,-1,793,797,798,-1,793,798,792,-1,792,798,799,-1,792,799,791,-1,791,799,800,-1,791,800,248,-1,248,800,403,-1,488,512,796,-1,796,512,801,-1,796,801,797,-1,797,801,802,-1,797,802,798,-1,798,802,803,-1,798,803,799,-1,799,803,804,-1,799,804,800,-1,800,804,581,-1,800,581,403,-1,403,581,404,-1,512,511,801,-1,801,511,805,-1,801,805,802,-1,802,805,806,-1,802,806,803,-1,803,806,807,-1,803,807,804,-1,804,807,808,-1,804,808,581,-1,581,808,580,-1,581,580,405,-1,405,580,401,-1,399,402,809,-1,809,402,580,-1,809,580,810,-1,810,580,808,-1,810,808,811,-1,811,808,807,-1,811,807,812,-1,812,807,806,-1,812,806,813,-1,813,806,805,-1,813,805,510,-1,510,805,511,-1,510,493,813,-1,813,493,682,-1,813,682,812,-1,812,682,684,-1,812,684,811,-1,811,684,686,-1,811,686,810,-1,810,686,688,-1,810,688,809,-1,809,688,690,-1,809,690,399,-1,399,690,397,-1,579,394,690,-1,690,394,396,-1,690,396,397,-1,390,389,814,-1,814,389,579,-1,814,579,815,-1,815,579,689,-1,815,689,816,-1,816,689,687,-1,816,687,817,-1,817,687,685,-1,817,685,818,-1,818,685,683,-1,818,683,465,-1,465,683,492,-1,465,464,818,-1,818,464,819,-1,818,819,817,-1,817,819,820,-1,817,820,816,-1,816,820,821,-1,816,821,815,-1,815,821,822,-1,815,822,814,-1,814,822,578,-1,814,578,390,-1,390,578,392,-1,387,393,577,-1,577,393,578,-1,577,578,823,-1,823,578,822,-1,823,822,824,-1,824,822,821,-1,824,821,825,-1,825,821,820,-1,825,820,826,-1,826,820,819,-1,826,819,515,-1,515,819,464,-1,515,514,826,-1,826,514,827,-1,826,827,825,-1,825,827,828,-1,825,828,824,-1,824,828,829,-1,824,829,823,-1,823,829,830,-1,823,830,577,-1,577,830,576,-1,577,576,388,-1,388,576,384,-1,382,385,831,-1,831,385,576,-1,831,576,832,-1,832,576,830,-1,832,830,833,-1,833,830,829,-1,833,829,834,-1,834,829,828,-1,834,828,835,-1,835,828,827,-1,835,827,513,-1,513,827,514,-1,513,495,835,-1,835,495,691,-1,835,691,834,-1,834,691,693,-1,834,693,833,-1,833,693,695,-1,833,695,832,-1,832,695,697,-1,832,697,831,-1,831,697,699,-1,831,699,382,-1,382,699,380,-1,575,377,699,-1,699,377,379,-1,699,379,380,-1,373,372,836,-1,836,372,575,-1,836,575,837,-1,837,575,698,-1,837,698,838,-1,838,698,696,-1,838,696,839,-1,839,696,694,-1,839,694,840,-1,840,694,692,-1,840,692,472,-1,472,692,494,-1,472,470,840,-1,840,470,841,-1,840,841,839,-1,839,841,842,-1,839,842,838,-1,838,842,843,-1,838,843,837,-1,837,843,844,-1,837,844,836,-1,836,844,574,-1,836,574,373,-1,373,574,375,-1,370,376,573,-1,573,376,574,-1,573,574,845,-1,845,574,844,-1,845,844,846,-1,846,844,843,-1,846,843,847,-1,847,843,842,-1,847,842,848,-1,848,842,841,-1,848,841,468,-1,468,841,470,-1,468,421,848,-1,848,421,849,-1,848,849,847,-1,847,849,850,-1,847,850,846,-1,846,850,851,-1,846,851,845,-1,845,851,852,-1,845,852,573,-1,573,852,572,-1,573,572,371,-1,371,572,367,-1,365,368,853,-1,853,368,572,-1,853,572,854,-1,854,572,852,-1,854,852,855,-1,855,852,851,-1,855,851,856,-1,856,851,850,-1,856,850,857,-1,857,850,849,-1,857,849,420,-1,420,849,421,-1,420,499,857,-1,857,499,700,-1,857,700,856,-1,856,700,702,-1,856,702,855,-1,855,702,704,-1,855,704,854,-1,854,704,706,-1,854,706,853,-1,853,706,708,-1,853,708,365,-1,365,708,363,-1,571,360,708,-1,708,360,362,-1,708,362,363,-1,356,355,858,-1,858,355,571,-1,858,571,859,-1,859,571,707,-1,859,707,860,-1,860,707,705,-1,860,705,861,-1,861,705,703,-1,861,703,862,-1,862,703,701,-1,862,701,503,-1,503,701,501,-1,503,505,862,-1,862,505,863,-1,862,863,861,-1,861,863,864,-1,861,864,860,-1,860,864,865,-1,860,865,859,-1,859,865,866,-1,859,866,858,-1,858,866,570,-1,858,570,356,-1,356,570,358,-1,353,359,569,-1,569,359,570,-1,569,570,867,-1,867,570,866,-1,867,866,868,-1,868,866,865,-1,868,865,869,-1,869,865,864,-1,869,864,870,-1,870,864,863,-1,870,863,506,-1,506,863,505,-1,506,475,870,-1,870,475,871,-1,870,871,869,-1,869,871,872,-1,869,872,868,-1,868,872,873,-1,868,873,867,-1,867,873,874,-1,867,874,569,-1,569,874,568,-1,569,568,354,-1,354,568,350,-1,348,351,875,-1,875,351,568,-1,875,568,876,-1,876,568,874,-1,876,874,877,-1,877,874,873,-1,877,873,878,-1,878,873,872,-1,878,872,879,-1,879,872,871,-1,879,871,474,-1,474,871,475,-1,474,425,879,-1,879,425,709,-1,879,709,878,-1,878,709,711,-1,878,711,877,-1,877,711,713,-1,877,713,876,-1,876,713,715,-1,876,715,875,-1,875,715,717,-1,875,717,348,-1,348,717,346,-1,567,343,717,-1,717,343,345,-1,717,345,346,-1,339,338,880,-1,880,338,567,-1,880,567,881,-1,881,567,716,-1,881,716,882,-1,882,716,714,-1,882,714,883,-1,883,714,712,-1,883,712,884,-1,884,712,710,-1,884,710,429,-1,429,710,427,-1,429,457,884,-1,884,457,718,-1,884,718,883,-1,883,718,720,-1,883,720,882,-1,882,720,722,-1,882,722,881,-1,881,722,724,-1,881,724,880,-1,880,724,726,-1,880,726,339,-1,339,726,341,-1,566,336,726,-1,726,336,342,-1,726,342,341,-1,456,455,719,-1,719,455,885,-1,719,885,721,-1,721,885,886,-1,721,886,723,-1,723,886,887,-1,723,887,725,-1,725,887,888,-1,725,888,566,-1,566,888,565,-1,566,565,337,-1,337,565,333,-1,331,334,889,-1,889,334,565,-1,889,565,890,-1,890,565,888,-1,890,888,891,-1,891,888,887,-1,891,887,892,-1,892,887,886,-1,892,886,893,-1,893,886,885,-1,893,885,430,-1,430,885,455,-1,430,432,893,-1,893,432,606,-1,893,606,892,-1,892,606,607,-1,892,607,891,-1,891,607,608,-1,891,608,890,-1,890,608,609,-1,890,609,889,-1,889,609,564,-1,889,564,331,-1,331,564,329,-1,415,730,596,-1,596,730,618,-1,596,618,598,-1,598,618,617,-1,598,617,601,-1,601,617,610,-1,601,610,605,-1,605,610,612,-1,605,612,564,-1,564,612,325,-1,564,325,327,-1,190,527,191,-1,191,527,528,-1,191,528,192,-1,192,528,529,-1,192,529,182,-1,182,529,530,-1,182,530,183,-1,183,530,184,-1,184,530,531,-1,184,531,185,-1,185,531,532,-1,185,532,186,-1,186,532,533,-1,186,533,187,-1,187,533,534,-1,187,534,188,-1,188,534,550,-1,188,550,181,-1,181,550,551,-1,181,551,180,-1,180,551,552,-1,180,552,178,-1,553,162,160,-1,553,160,552,-1,552,160,167,-1,552,167,178,-1,554,151,553,-1,553,151,156,-1,553,156,162,-1,555,1,554,-1,554,1,0,-1,554,0,151,-1,562,148,561,-1,561,148,147,-1,561,147,560,-1,560,147,146,-1,560,146,559,-1,559,146,145,-1,559,145,558,-1,558,145,144,-1,558,144,557,-1,557,144,143,-1,557,143,556,-1,556,143,142,-1,556,142,555,-1,555,142,141,-1,555,141,1,-1,139,138,549,-1,549,138,4,-1,549,4,563,-1,563,4,3,-1,563,3,562,-1,562,3,149,-1,562,149,148,-1,139,549,140,-1,140,549,548,-1,140,548,130,-1,130,548,547,-1,130,547,131,-1,131,547,546,-1,131,546,123,-1,123,546,124,-1,124,546,545,-1,124,545,126,-1,126,545,544,-1,126,544,127,-1,127,544,543,-1,127,543,128,-1,128,543,542,-1,128,542,129,-1,129,542,541,-1,129,541,122,-1,122,541,6,-1,6,541,540,-1,6,540,7,-1,7,540,539,-1,7,539,115,-1,538,120,118,-1,538,118,539,-1,539,118,116,-1,539,116,115,-1,537,9,538,-1,538,9,121,-1,538,121,120,-1,536,109,537,-1,537,109,108,-1,537,108,9,-1,520,113,535,-1,535,113,112,-1,535,112,536,-1,536,112,111,-1,536,111,109,-1,525,106,524,-1,524,106,105,-1,524,105,523,-1,523,105,104,-1,523,104,522,-1,522,104,102,-1,522,102,521,-1,521,102,101,-1,521,101,520,-1,520,101,114,-1,520,114,113,-1,190,189,527,-1,527,189,13,-1,527,13,526,-1,526,13,12,-1,526,12,525,-1,525,12,107,-1,525,107,106,-1,
        ]
    }
}
Shape{
    appearance Appearance {
        material  Material {
            diffuseColor 1.0 1.0 1.0
            specularColor 0.5019607843137255 0.5019607843137255 0.5019607843137255
            ambientIntensity 1.0
            transparency 0.0
            shininess 0.5
        }
    }
    geometry IndexedFaceSet {
        ccw TRUE
        solid FALSE
        coord DEF co Coordinate {
            point [
                0.0512 0.8761 -2.1654, 0.0227 0.8643 0.1181, 0.0227 0.8643 -2.1654, -0.0079 0.8602 0.1181, -0.0079 0.8602 -2.1654, -0.0384 0.8643 0.1181, -0.0384 0.8643 -2.1654, -0.0669 0.8761 0.1181, -0.0669 0.8761 -2.1654, -0.0807 0.8866 0.1181, -0.0914 0.8948 -2.1654, -0.0914 0.8948 0.1181, -0.1102 0.9193 0.1181, -0.1102 0.9193 -2.1654, -0.122 0.9478 0.1181, -0.122 0.9478 -2.1654, -0.126 0.9783 0.1181, -0.126 0.9783 -2.1654, -0.122 1.0089 0.1181, -0.122 1.0089 -2.1654, -0.1102 1.0374 0.1181, -0.1102 1.0374 -2.1654, -0.0914 1.0619 0.1181, -0.0914 1.0619 -2.1654, -0.0807 1.0701 0.1181, -0.0669 1.0806 -2.1654, -0.0669 1.0806 0.1181, -0.0384 1.0924 0.1181, -0.0384 1.0924 -2.1654, -0.0079 1.0965 0.1181, -0.0079 1.0965 -2.1654, 0.0227 1.0924 0.1181, 0.0227 1.0924 -2.1654, 0.0512 1.0806 0.1181, 0.0512 1.0806 -2.1654, 0.0633 1.0713 0.1181, 0.0756 1.0619 -2.1654, 0.0756 1.0619 0.1181, 0.0944 1.0374 0.1181, 0.0944 1.0374 -2.1654, 0.1062 1.0089 0.1181, 0.1062 1.0089 -2.1654, 0.1102 0.9783 0.1181, 0.1102 0.9783 -2.1654, 0.1062 0.9478 0.1181, 0.1062 0.9478 -2.1654, 0.0944 0.9193 0.1181, 0.0944 0.9193 -2.1654, 0.0756 0.8948 0.1181, 0.0756 0.8948 -2.1654, 0.0633 0.8854 0.1181, 0.0512 0.8761 0.1181, -0.0079 0.9783 -2.1654, 0.0512 -1.0924 -1.4567, 0.0227 -1.1042 0.1181, 0.0227 -1.1042 -1.4567, -0.0079 -1.1083 0.1181, -0.0079 -1.1083 -1.4567, -0.0384 -1.1042 0.1181, -0.0384 -1.1042 -1.4567, -0.0669 -1.0924 0.1181, -0.0669 -1.0924 -1.4567, -0.0807 -1.0819 0.1181, -0.0914 -1.0737 -1.4567, -0.0914 -1.0737 0.1181, -0.1102 -1.0492 0.1181, -0.1102 -1.0492 -1.4567, -0.122 -1.0207 0.1181, -0.122 -1.0207 -1.4567, -0.126 -0.9902 0.1181, -0.126 -0.9902 -1.4567, -0.122 -0.9596 0.1181, -0.122 -0.9596 -1.4567, -0.1102 -0.9311 0.1181, -0.1102 -0.9311 -1.4567, -0.0914 -0.9066 0.1181, -0.0914 -0.9066 -1.4567, -0.0807 -0.8985 0.1181, -0.0669 -0.8879 -1.4567, -0.0669 -0.8879 0.1181, -0.0384 -0.8761 0.1181, -0.0384 -0.8761 -1.4567, -0.0079 -0.8721 0.1181, -0.0079 -0.8721 -1.4567, 0.0227 -0.8761 0.1181, 0.0227 -0.8761 -1.4567, 0.0512 -0.8879 0.1181, 0.0512 -0.8879 -1.4567, 0.0633 -0.8972 0.1181, 0.0756 -0.9066 -1.4567, 0.0756 -0.9066 0.1181, 0.0944 -0.9311 0.1181, 0.0944 -0.9311 -1.4567, 0.1062 -0.9596 0.1181, 0.1062 -0.9596 -1.4567, 0.1102 -0.9902 0.1181, 0.1102 -0.9902 -1.4567, 0.1062 -1.0207 0.1181, 0.1062 -1.0207 -1.4567, 0.0944 -1.0492 0.1181, 0.0944 -1.0492 -1.4567, 0.0756 -1.0737 0.1181, 0.0756 -1.0737 -1.4567, 0.0633 -1.0831 0.1181, 0.0512 -1.0924 0.1181, -0.0079 -0.9902 -1.4567
            ]
        }
        coordIndex [
            0,1,2,-1,2,1,3,-1,2,3,4,-1,4,3,5,-1,4,5,6,-1,6,5,7,-1,6,7,8,-1,8,7,9,-1,8,9,10,-1,9,11,10,-1,10,11,12,-1,10,12,13,-1,13,12,14,-1,13,14,15,-1,15,14,16,-1,15,16,17,-1,17,16,18,-1,17,18,19,-1,19,18,20,-1,19,20,21,-1,21,20,22,-1,21,22,23,-1,23,22,24,-1,23,24,25,-1,24,26,25,-1,25,26,27,-1,25,27,28,-1,28,27,29,-1,28,29,30,-1,30,29,31,-1,30,31,32,-1,32,31,33,-1,32,33,34,-1,34,33,35,-1,34,35,36,-1,35,37,36,-1,36,37,38,-1,36,38,39,-1,39,38,40,-1,39,40,41,-1,41,40,42,-1,41,42,43,-1,43,42,44,-1,43,44,45,-1,45,44,46,-1,45,46,47,-1,47,46,48,-1,47,48,49,-1,49,48,50,-1,49,50,0,-1,0,50,51,-1,0,51,1,-1,39,41,52,-1,52,41,43,-1,52,43,45,-1,32,34,52,-1,52,34,36,-1,52,36,39,-1,25,28,52,-1,52,28,30,-1,52,30,32,-1,19,21,52,-1,52,21,23,-1,52,23,25,-1,13,15,52,-1,52,15,17,-1,52,17,19,-1,6,8,52,-1,52,8,10,-1,52,10,13,-1,0,2,52,-1,52,2,4,-1,52,4,6,-1,45,47,52,-1,52,47,49,-1,52,49,0,-1,53,54,55,-1,55,54,56,-1,55,56,57,-1,57,56,58,-1,57,58,59,-1,59,58,60,-1,59,60,61,-1,61,60,62,-1,61,62,63,-1,62,64,63,-1,63,64,65,-1,63,65,66,-1,66,65,67,-1,66,67,68,-1,68,67,69,-1,68,69,70,-1,70,69,71,-1,70,71,72,-1,72,71,73,-1,72,73,74,-1,74,73,75,-1,74,75,76,-1,76,75,77,-1,76,77,78,-1,77,79,78,-1,78,79,80,-1,78,80,81,-1,81,80,82,-1,81,82,83,-1,83,82,84,-1,83,84,85,-1,85,84,86,-1,85,86,87,-1,87,86,88,-1,87,88,89,-1,88,90,89,-1,89,90,91,-1,89,91,92,-1,92,91,93,-1,92,93,94,-1,94,93,95,-1,94,95,96,-1,96,95,97,-1,96,97,98,-1,98,97,99,-1,98,99,100,-1,100,99,101,-1,100,101,102,-1,102,101,103,-1,102,103,53,-1,53,103,104,-1,53,104,54,-1,66,68,105,-1,105,68,70,-1,105,70,72,-1,59,61,105,-1,105,61,63,-1,105,63,66,-1,53,55,105,-1,105,55,57,-1,105,57,59,-1,98,100,105,-1,105,100,102,-1,105,102,53,-1,92,94,105,-1,105,94,96,-1,105,96,98,-1,85,87,105,-1,105,87,89,-1,105,89,92,-1,78,81,105,-1,105,81,83,-1,105,83,85,-1,72,74,105,-1,105,74,76,-1,105,76,78,-1,
        ]
    }
}
Shape{
    appearance Appearance {
        material  Material {
            diffuseColor 0.25098039215686274 0.25098039215686274 0.25098039215686274
            specularColor 0.12549019607843137 0.12549019607843137 0.12549019607843137
            ambientIntensity 0.251
            transparency 0.0
            shininess 0.5
        }
    }
    geometry IndexedFaceSet {
        ccw TRUE
        solid FALSE
        coord DEF co Coordinate {
            point [
                0.189 -0.0059 1.7717, 0.189 -0.0059 2.1654, 0.1823 0.045 1.7717, 0.1823 0.045 2.1654, 0.1626 0.0925 1.7717, 0.1626 0.0925 2.1654, 0.1313 0.1333 1.7717, 0.1313 0.1333 2.1654, 0.0906 0.1646 1.7717, 0.0906 0.1646 2.1654, 0.0431 0.1842 1.7717, 0.0431 0.1842 2.1654, -0.0079 0.1909 1.7717, -0.0079 0.1909 2.1654, -0.0588 0.1842 1.7717, -0.0588 0.1842 2.1654, -0.1063 0.1646 1.7717, -0.1063 0.1646 2.1654, -0.1471 0.1333 1.7717, -0.1471 0.1333 2.1654, -0.1783 0.0925 1.7717, -0.1783 0.0925 2.1654, -0.198 0.045 1.7717, -0.198 0.045 2.1654, -0.2047 -0.0059 1.7717, -0.2047 -0.0059 2.1654, -0.198 -0.0569 1.7717, -0.198 -0.0569 2.1654, -0.1783 -0.1043 1.7717, -0.1783 -0.1043 2.1654, -0.1471 -0.1451 1.7717, -0.1471 -0.1451 2.1654, -0.1063 -0.1764 1.7717, -0.1063 -0.1764 2.1654, -0.0588 -0.1961 1.7717, -0.0588 -0.1961 2.1654, -0.0079 -0.2028 1.7717, -0.0079 -0.2028 2.1654, 0.0431 -0.1961 1.7717, 0.0431 -0.1961 2.1654, 0.0906 -0.1764 1.7717, 0.0906 -0.1764 2.1654, 0.1313 -0.1451 1.7717, 0.1313 -0.1451 2.1654, 0.1626 -0.1043 1.7717, 0.1626 -0.1043 2.1654, 0.1823 -0.0569 1.7717, 0.1823 -0.0569 2.1654, -0.0079 -0.0059 1.7717
            ]
        }
        coordIndex [
            0,1,2,-1,2,1,3,-1,2,3,4,-1,4,3,5,-1,4,5,6,-1,6,5,7,-1,6,7,8,-1,8,7,9,-1,8,9,10,-1,10,9,11,-1,10,11,12,-1,12,11,13,-1,12,13,14,-1,14,13,15,-1,14,15,16,-1,16,15,17,-1,16,17,18,-1,18,17,19,-1,18,19,20,-1,20,19,21,-1,20,21,22,-1,22,21,23,-1,22,23,24,-1,24,23,25,-1,24,25,26,-1,26,25,27,-1,26,27,28,-1,28,27,29,-1,28,29,30,-1,30,29,31,-1,30,31,32,-1,32,31,33,-1,32,33,34,-1,34,33,35,-1,34,35,36,-1,36,35,37,-1,36,37,38,-1,38,37,39,-1,38,39,40,-1,40,39,41,-1,40,41,42,-1,42,41,43,-1,42,43,44,-1,44,43,45,-1,44,45,46,-1,46,45,47,-1,46,47,0,-1,0,47,1,-1,44,46,48,-1,48,46,0,-1,48,0,2,-1,38,40,48,-1,48,40,42,-1,48,42,44,-1,32,34,48,-1,48,34,36,-1,48,36,38,-1,26,28,48,-1,48,28,30,-1,48,30,32,-1,20,22,48,-1,48,22,24,-1,48,24,26,-1,14,16,48,-1,48,16,18,-1,48,18,20,-1,8,10,48,-1,48,10,12,-1,48,12,14,-1,2,4,48,-1,48,4,6,-1,48,6,8,-1,
        ]
    }
}
Shape{
    appearance Appearance {
        material  Material {
            diffuseColor 0.7529411764705882 0.7529411764705882 0.7529411764705882
            specularColor 0.3764705882352941 0.3764705882352941 0.3764705882352941
            ambientIntensity 0.7529
            transparency 0.0
            shininess 0.5
        }
    }
    geometry IndexedFaceSet {
        ccw TRUE
        solid FALSE
        coord DEF co Coordinate {
            point [
                0.1177 1.2356 2.165, 0.1177 1.2356 2.1654, 0.1135 1.2681 2.165, 0.1135 1.2681 2.1654, 0.1009 1.2984 2.165, 0.1009 1.2984 2.1654, 0.0809 1.3244 2.165, 0.0809 1.3244 2.1654, 0.0549 1.3443 2.165, 0.0549 1.3443 2.1654, 0.0246 1.3569 2.165, 0.0246 1.3569 2.1654, -0.0079 1.3612 2.165, -0.0079 1.3612 2.1654, -0.0404 1.3569 2.165, -0.0404 1.3569 2.1654, -0.0707 1.3443 2.165, -0.0707 1.3443 2.1654, -0.0967 1.3244 2.165, -0.0967 1.3244 2.1654, -0.1166 1.2984 2.165, -0.1166 1.2984 2.1654, -0.1292 1.2681 2.165, -0.1292 1.2681 2.1654, -0.1335 1.2356 2.165, -0.1335 1.2356 2.1654, -0.1292 1.203 2.165, -0.1292 1.203 2.1654, -0.1166 1.1728 2.165, -0.1166 1.1728 2.1654, -0.0967 1.1467 2.165, -0.0967 1.1467 2.1654, -0.0707 1.1268 2.165, -0.0707 1.1268 2.1654, -0.0404 1.1142 2.165, -0.0404 1.1142 2.1654, -0.0079 1.11 2.165, -0.0079 1.11 2.1654, 0.0246 1.1142 2.165, 0.0246 1.1142 2.1654, 0.0549 1.1268 2.165, 0.0549 1.1268 2.1654, 0.0809 1.1467 2.165, 0.0809 1.1467 2.1654, 0.1009 1.1728 2.165, 0.1009 1.1728 2.1654, 0.1135 1.203 2.165, 0.1135 1.203 2.1654, -0.0079 1.2356 2.165
            ]
        }
        coordIndex [
            0,1,2,-1,2,1,3,-1,2,3,4,-1,4,3,5,-1,4,5,6,-1,6,5,7,-1,6,7,8,-1,8,7,9,-1,8,9,10,-1,10,9,11,-1,10,11,12,-1,12,11,13,-1,12,13,14,-1,14,13,15,-1,14,15,16,-1,16,15,17,-1,16,17,18,-1,18,17,19,-1,18,19,20,-1,20,19,21,-1,20,21,22,-1,22,21,23,-1,22,23,24,-1,24,23,25,-1,24,25,26,-1,26,25,27,-1,26,27,28,-1,28,27,29,-1,28,29,30,-1,30,29,31,-1,30,31,32,-1,32,31,33,-1,32,33,34,-1,34,33,35,-1,34,35,36,-1,36,35,37,-1,36,37,38,-1,38,37,39,-1,38,39,40,-1,40,39,41,-1,40,41,42,-1,42,41,43,-1,42,43,44,-1,44,43,45,-1,44,45,46,-1,46,45,47,-1,46,47,0,-1,0,47,1,-1,44,46,48,-1,48,46,0,-1,48,0,2,-1,38,40,48,-1,48,40,42,-1,48,42,44,-1,32,34,48,-1,48,34,36,-1,48,36,38,-1,26,28,48,-1,48,28,30,-1,48,30,32,-1,20,22,48,-1,48,22,24,-1,48,24,26,-1,14,16,48,-1,48,16,18,-1,48,18,20,-1,8,10,48,-1,48,10,12,-1,48,12,14,-1,2,4,48,-1,48,4,6,-1,48,6,8,-1,
        ]
    }
}
Shape{
    appearance Appearance {
        material  Material {
            diffuseColor 0.0 0.0 0.0
            specularColor 0.0 0.0 0.0
            ambientIntensity 0.0
            transparency 0.0
            shininess 0.5
        }
    }
    geometry IndexedFaceSet {
        ccw TRUE
        solid FALSE
        coord DEF co Coordinate {
            point [
                -0.3736 0.0967 0.1185, -0.4504 -0.1001 0.1185, -0.3736 0.0967 0.1181, -0.4504 -0.1001 0.1181, -0.4216 -0.1001 0.1185, -0.4216 -0.1001 0.1181, -0.4017 -0.0449 0.1185, -0.4017 -0.0449 0.1181, -0.3204 -0.0449 0.1185, -0.3204 -0.0449 0.1181, -0.3016 -0.1001 0.1185, -0.3016 -0.1001 0.1181, -0.2728 -0.1001 0.1185, -0.2728 -0.1001 0.1181, -0.3472 0.0967 0.1185, -0.3472 0.0967 0.1181, -0.327 -0.0233 0.1185, -0.3928 -0.0233 0.1185, -0.3564 0.0589 0.1185, -0.3583 0.0657 0.1185, -0.3595 0.0727 0.1185, -0.3602 0.0727 0.1185, -0.3614 0.0657 0.1185, -0.3632 0.0589 0.1185, -0.327 -0.0233 0.1181, -0.3928 -0.0233 0.1181, -0.3564 0.0589 0.1181, -0.3583 0.0657 0.1181, -0.3595 0.0727 0.1181, -0.3602 0.0727 0.1181, -0.3614 0.0657 0.1181, -0.3632 0.0589 0.1181, -0.1534 -0.1001 0.1185, -0.0999 -0.1001 0.1185, -0.1534 -0.1001 0.1181, -0.0999 -0.1001 0.1181, -0.0999 0.0967 0.1185, -0.0999 0.0967 0.1181, -0.1555 0.0967 0.1185, -0.1555 0.0967 0.1181, -0.1839 0.0937 0.1185, -0.2584 0.0008 0.1185, -0.2584 0.0008 0.1181, -0.2569 0.0193 0.1181, -0.2569 0.0193 0.1185, -0.2516 0.0387 0.1181, -0.2516 0.0387 0.1185, -0.2425 0.0556 0.1181, -0.2425 0.0556 0.1185, -0.2286 0.071 0.1181, -0.2286 0.071 0.1185, -0.2284 0.0712 0.1181, -0.2284 0.0712 0.1185, -0.2069 0.0856 0.1181, -0.2069 0.0856 0.1185, -0.1922 0.0908 0.1181, -0.1839 0.0937 0.1181, -0.1778 -0.098 0.1181, -0.1778 -0.098 0.1185, -0.1922 -0.0937 0.1181, -0.2005 -0.0913 0.1185, -0.2005 -0.0913 0.1181, -0.221 -0.0793 0.1181, -0.221 -0.0793 0.1185, -0.2372 -0.0638 0.1181, -0.2372 -0.0638 0.1185, -0.2485 -0.0462 0.1181, -0.2485 -0.0462 0.1185, -0.2556 -0.0256 0.1181, -0.2556 -0.0256 0.1185, -0.2188 0.0475 0.1185, -0.2093 0.0577 0.1185, -0.1949 0.0669 0.1185, -0.1787 0.0726 0.1185, -0.1554 0.0751 0.1185, -0.1263 0.0751 0.1185, -0.1263 -0.0785 0.1185, -0.1543 -0.0785 0.1185, -0.175 -0.0766 0.1185, -0.1916 -0.0714 0.1185, -0.205 -0.0635 0.1185, -0.2161 -0.0526 0.1185, -0.2244 -0.039 0.1185, -0.2301 -0.0205 0.1185, -0.2319 0.0002 0.1185, -0.2303 0.0198 0.1185, -0.2257 0.0354 0.1185, -0.1554 0.0751 0.1181, -0.1263 0.0751 0.1181, -0.1787 0.0726 0.1181, -0.1949 0.0669 0.1181, -0.2093 0.0577 0.1181, -0.2188 0.0475 0.1181, -0.2257 0.0354 0.1181, -0.2303 0.0198 0.1181, -0.2319 0.0002 0.1181, -0.2301 -0.0205 0.1181, -0.2244 -0.039 0.1181, -0.2161 -0.0526 0.1181, -0.205 -0.0635 0.1181, -0.1916 -0.0714 0.1181, -0.175 -0.0766 0.1181, -0.1543 -0.0785 0.1181, -0.1263 -0.0785 0.1181, -0.0615 -0.0785 0.1185, -0.0615 -0.1001 0.1185, -0.0615 -0.0785 0.1181, -0.0615 -0.1001 0.1181, 0.0441 -0.1001 0.1185, 0.0441 -0.1001 0.1181, 0.0441 0.0967 0.1185, 0.0441 0.0967 0.1181, -0.0567 0.0967 0.1185, -0.0567 0.0967 0.1181, -0.0567 0.0751 0.1185, -0.0567 0.0751 0.1181, 0.0177 0.0751 0.1185, 0.0177 0.0751 0.1181, 0.0177 0.0103 0.1185, 0.0177 0.0103 0.1181, -0.0519 0.0103 0.1185, -0.0519 0.0103 0.1181, -0.0519 -0.0113 0.1185, -0.0519 -0.0113 0.1181, 0.0177 -0.0113 0.1185, 0.0177 -0.0113 0.1181, 0.0177 -0.0785 0.1185, 0.0177 -0.0785 0.1181, 0.0825 -0.0683 0.1185, 0.0825 -0.0899 0.1185, 0.0825 -0.0683 0.1181, 0.0825 -0.0899 0.1181, 0.1035 -0.0986 0.1185, 0.1367 -0.1025 0.1185, 0.1367 -0.1025 0.1181, 0.1313 -0.1024 0.1181, 0.1313 -0.1024 0.1185, 0.1234 -0.1013 0.1181, 0.1035 -0.0986 0.1181, 0.229 -0.0054 0.1185, 0.229 -0.0054 0.1181, 0.2271 -0.0282 0.1181, 0.1483 -0.1013 0.1181, 0.161 -0.1 0.1185, 0.2271 -0.0282 0.1185, 0.2211 -0.0491 0.1181, 0.2211 -0.0491 0.1185, 0.2107 -0.0678 0.1181, 0.2107 -0.0678 0.1185, 0.1959 -0.0833 0.1181, 0.1959 -0.0833 0.1185, 0.18 -0.0935 0.1181, 0.18 -0.0935 0.1185, 0.1696 -0.097 0.1181, 0.161 -0.1 0.1181, 0.1696 0.0914 0.1181, 0.1706 0.0911 0.1185, 0.1486 0.0975 0.1181, 0.1486 0.0975 0.1185, 0.1436 0.0979 0.1181, 0.1289 0.0991 0.1185, 0.1289 0.0991 0.1181, 0.1706 0.0911 0.1181, 0.1893 0.0804 0.1181, 0.1893 0.0804 0.1185, 0.207 0.0633 0.1181, 0.207 0.0633 0.1185, 0.2186 0.0449 0.1181, 0.2186 0.0449 0.1185, 0.2261 0.0226 0.1181, 0.2261 0.0226 0.1185, 0.1115 0.0979 0.1181, 0.1053 0.0975 0.1185, 0.1053 0.0975 0.1181, 0.0825 0.0913 0.1185, 0.0825 0.0913 0.1181, 0.0825 0.0649 0.1185, 0.0825 0.0649 0.1181, 0.1286 0.0775 0.1185, 0.1286 0.0775 0.1181, 0.1047 0.0744 0.1181, 0.1047 0.0744 0.1185, 0.2026 -0.0038 0.1185, 0.2026 -0.0038 0.1181, 0.2016 0.0115 0.1181, 0.2016 0.0115 0.1185, 0.1964 0.0326 0.1181, 0.1964 0.0326 0.1185, 0.1883 0.0478 0.1181, 0.1883 0.0478 0.1185, 0.1764 0.0609 0.1181, 0.1764 0.0609 0.1185, 0.1696 0.0654 0.1181, 0.1627 0.07 0.1185, 0.1627 0.07 0.1181, 0.148 0.0753 0.1181, 0.148 0.0753 0.1185, 0.1331 -0.0809 0.1185, 0.1331 -0.0809 0.1181, 0.1514 -0.0789 0.1181, 0.1514 -0.0789 0.1185, 0.1658 -0.0736 0.1181, 0.1658 -0.0736 0.1185, 0.1696 -0.071 0.1181, 0.1778 -0.0655 0.1185, 0.1778 -0.0655 0.1181, 0.1871 -0.0557 0.1181, 0.1871 -0.0557 0.1185, 0.1952 -0.0421 0.1181, 0.1952 -0.0421 0.1185, 0.2006 -0.0251 0.1181, 0.2006 -0.0251 0.1185, 0.0861 -0.0703 0.1181, 0.0861 -0.0703 0.1185, 0.1069 -0.078 0.1181, 0.1069 -0.078 0.1185, 0.2458 -0.0785 0.1185, 0.2458 -0.1001 0.1185, 0.2458 -0.0785 0.1181, 0.2458 -0.1001 0.1181, 0.3466 -0.1001 0.1185, 0.3466 -0.1001 0.1181, 0.3466 0.0967 0.1185, 0.3466 0.0967 0.1181, 0.3202 0.0967 0.1185, 0.3202 0.0967 0.1181, 0.3202 -0.0785 0.1185, 0.3202 -0.0785 0.1181
            ]
        }
        coordIndex [
            0,1,2,-1,2,1,3,-1,1,4,3,-1,3,4,5,-1,4,6,5,-1,5,6,7,-1,6,8,7,-1,7,8,9,-1,8,10,9,-1,9,10,11,-1,10,12,11,-1,11,12,13,-1,12,14,13,-1,13,14,15,-1,14,0,15,-1,15,0,2,-1,16,8,17,-1,17,8,6,-1,18,14,16,-1,16,14,12,-1,16,12,8,-1,8,12,10,-1,18,19,14,-1,14,19,20,-1,14,20,0,-1,0,20,21,-1,0,21,22,-1,22,23,0,-1,0,23,17,-1,0,17,1,-1,1,17,6,-1,1,6,4,-1,16,17,24,-1,24,17,25,-1,18,16,26,-1,26,16,24,-1,18,26,27,-1,18,27,19,-1,19,27,28,-1,19,28,20,-1,21,20,29,-1,29,20,28,-1,21,29,30,-1,21,30,22,-1,22,30,31,-1,22,31,23,-1,17,23,25,-1,25,23,31,-1,32,33,34,-1,34,33,35,-1,33,36,35,-1,35,36,37,-1,36,38,37,-1,37,38,39,-1,39,38,40,-1,41,42,43,-1,41,43,44,-1,44,43,45,-1,44,45,46,-1,46,45,47,-1,46,47,48,-1,48,47,49,-1,48,49,50,-1,50,49,51,-1,50,51,52,-1,52,51,53,-1,52,53,54,-1,54,53,55,-1,54,55,40,-1,40,55,56,-1,40,56,39,-1,32,34,57,-1,32,57,58,-1,58,57,59,-1,58,59,60,-1,59,61,60,-1,60,61,62,-1,60,62,63,-1,63,62,64,-1,63,64,65,-1,65,64,66,-1,65,66,67,-1,67,66,68,-1,67,68,69,-1,69,68,42,-1,69,42,41,-1,46,48,70,-1,70,48,50,-1,70,50,71,-1,71,50,52,-1,71,52,72,-1,72,52,54,-1,72,54,73,-1,73,54,40,-1,73,40,74,-1,74,40,38,-1,74,38,75,-1,75,38,36,-1,75,36,76,-1,76,36,33,-1,76,33,77,-1,77,33,32,-1,77,32,78,-1,78,32,58,-1,78,58,79,-1,79,58,60,-1,79,60,80,-1,80,60,63,-1,80,63,81,-1,81,63,65,-1,81,65,82,-1,82,65,67,-1,82,67,83,-1,83,67,69,-1,83,69,84,-1,84,69,41,-1,84,41,85,-1,85,41,44,-1,85,44,86,-1,86,44,46,-1,86,46,70,-1,74,75,87,-1,87,75,88,-1,74,87,89,-1,74,89,73,-1,73,89,90,-1,73,90,72,-1,72,90,91,-1,72,91,71,-1,71,91,92,-1,71,92,70,-1,70,92,93,-1,70,93,86,-1,86,93,94,-1,86,94,85,-1,85,94,95,-1,85,95,84,-1,84,95,96,-1,84,96,83,-1,83,96,97,-1,83,97,82,-1,82,97,98,-1,82,98,81,-1,81,98,99,-1,81,99,80,-1,80,99,100,-1,80,100,79,-1,79,100,101,-1,79,101,78,-1,78,101,102,-1,78,102,77,-1,76,77,103,-1,103,77,102,-1,75,76,88,-1,88,76,103,-1,104,105,106,-1,106,105,107,-1,105,108,107,-1,107,108,109,-1,108,110,109,-1,109,110,111,-1,110,112,111,-1,111,112,113,-1,112,114,113,-1,113,114,115,-1,114,116,115,-1,115,116,117,-1,116,118,117,-1,117,118,119,-1,118,120,119,-1,119,120,121,-1,120,122,121,-1,121,122,123,-1,122,124,123,-1,123,124,125,-1,124,126,125,-1,125,126,127,-1,126,104,127,-1,127,104,106,-1,108,105,104,-1,104,126,108,-1,108,126,124,-1,108,124,110,-1,114,112,116,-1,116,112,110,-1,116,110,118,-1,118,110,124,-1,118,124,120,-1,120,124,122,-1,128,129,130,-1,130,129,131,-1,131,129,132,-1,133,134,135,-1,133,135,136,-1,136,135,137,-1,136,137,132,-1,132,137,138,-1,132,138,131,-1,139,140,141,-1,134,133,142,-1,142,133,143,-1,139,141,144,-1,144,141,145,-1,144,145,146,-1,146,145,147,-1,146,147,148,-1,148,147,149,-1,148,149,150,-1,150,149,151,-1,150,151,152,-1,152,151,153,-1,152,153,143,-1,143,153,154,-1,143,154,142,-1,155,156,157,-1,157,156,158,-1,157,158,159,-1,159,158,160,-1,159,160,161,-1,155,162,156,-1,156,162,163,-1,156,163,164,-1,164,163,165,-1,164,165,166,-1,166,165,167,-1,166,167,168,-1,168,167,169,-1,168,169,170,-1,170,169,140,-1,170,140,139,-1,161,160,171,-1,171,160,172,-1,171,172,173,-1,173,172,174,-1,173,174,175,-1,174,176,175,-1,175,176,177,-1,178,179,180,-1,178,180,181,-1,181,180,177,-1,181,177,176,-1,182,183,184,-1,182,184,185,-1,185,184,186,-1,185,186,187,-1,187,186,188,-1,187,188,189,-1,189,188,190,-1,189,190,191,-1,191,190,192,-1,191,192,193,-1,192,194,193,-1,193,194,195,-1,193,195,196,-1,196,195,179,-1,196,179,178,-1,197,198,199,-1,197,199,200,-1,200,199,201,-1,200,201,202,-1,202,201,203,-1,202,203,204,-1,203,205,204,-1,204,205,206,-1,204,206,207,-1,207,206,208,-1,207,208,209,-1,209,208,210,-1,209,210,211,-1,211,210,183,-1,211,183,182,-1,128,130,212,-1,128,212,213,-1,213,212,214,-1,213,214,215,-1,215,214,198,-1,215,198,197,-1,200,133,197,-1,197,133,136,-1,197,136,215,-1,215,136,132,-1,215,132,213,-1,213,132,129,-1,213,129,128,-1,176,174,181,-1,181,174,172,-1,181,172,178,-1,178,172,160,-1,178,160,196,-1,196,160,158,-1,196,158,193,-1,193,158,156,-1,193,156,191,-1,191,156,164,-1,191,164,189,-1,189,164,166,-1,189,166,187,-1,187,166,168,-1,187,168,185,-1,185,168,170,-1,185,170,182,-1,182,170,139,-1,182,139,211,-1,211,139,144,-1,211,144,209,-1,209,144,146,-1,209,146,207,-1,207,146,148,-1,207,148,204,-1,204,148,150,-1,204,150,202,-1,202,150,152,-1,202,152,200,-1,200,152,143,-1,200,143,133,-1,216,217,218,-1,218,217,219,-1,217,220,219,-1,219,220,221,-1,220,222,221,-1,221,222,223,-1,222,224,223,-1,223,224,225,-1,224,226,225,-1,225,226,227,-1,226,216,227,-1,227,216,218,-1,224,222,226,-1,226,222,220,-1,226,220,216,-1,216,220,217,-1,
        ]
    }
}
Shape{
    appearance Appearance {
        material  Material {
            diffuseColor 0.25098039215686274 0.25098039215686274 0.25098039215686274
            specularColor 0.12549019607843137 0.12549019607843137 0.12549019607843137
            ambientIntensity 0.251
            transparency 0.0
            shininess 0.5
        }
    }
    geometry IndexedFaceSet {
        ccw TRUE
        solid FALSE
        coord DEF co Coordinate {
            point [
                -0.327 -0.0233 0.1181, -0.3928 -0.0233 0.1181, -0.3564 0.0589 0.1181, -0.3632 0.0589 0.1181, -0.3583 0.0657 0.1181, -0.3614 0.0657 0.1181, -0.3595 0.0727 0.1181, -0.3602 0.0727 0.1181, -0.1263 0.0751 0.1181, -0.1263 -0.0785 0.1181, -0.1554 0.0751 0.1181, -0.1543 -0.0785 0.1181, -0.175 -0.0766 0.1181, -0.2319 0.0002 0.1181, -0.2303 0.0198 0.1181, -0.2257 0.0354 0.1181, -0.1787 0.0726 0.1181, -0.1916 -0.0714 0.1181, -0.205 -0.0635 0.1181, -0.2161 -0.0526 0.1181, -0.2244 -0.039 0.1181, -0.2301 -0.0205 0.1181, -0.2188 0.0475 0.1181, -0.2093 0.0577 0.1181, -0.1949 0.0669 0.1181
            ]
        }
        coordIndex [
            0,1,2,-1,2,1,3,-1,2,3,4,-1,4,3,5,-1,4,5,6,-1,6,5,7,-1,8,9,10,-1,10,9,11,-1,10,11,12,-1,13,14,10,-1,10,14,15,-1,10,15,16,-1,12,17,10,-1,10,17,18,-1,10,18,19,-1,19,20,10,-1,10,20,21,-1,10,21,13,-1,22,23,15,-1,15,23,24,-1,15,24,16,-1,
        ]
    }
}